# Blender 5.2.2 LTS
# www.blender.org
mtllib R_460_Poseidon.mtl
o R460_Poseidon
v 0.000000 0.000000 0.172000
v -0.044517 0.000000 0.166139
v -0.086000 0.000000 0.148956
v -0.121622 0.000000 0.121622
v -0.148956 0.000000 0.086000
v -0.166139 0.000000 0.044517
v -0.172000 0.000000 0.000000
v -0.166139 0.000000 -0.044517
v -0.148956 0.000000 -0.086000
v -0.121622 0.000000 -0.121622
v -0.086000 0.000000 -0.148956
v -0.044517 0.000000 -0.166139
v -0.000000 0.000000 -0.172000
v 0.044517 0.000000 -0.166139
v 0.086000 0.000000 -0.148956
v 0.121622 0.000000 -0.121622
v 0.148956 0.000000 -0.086000
v 0.166139 0.000000 -0.044517
v 0.172000 0.000000 -0.000000
v 0.166139 0.000000 0.044517
v 0.148956 0.000000 0.086000
v 0.121622 0.000000 0.121622
v 0.086000 0.000000 0.148956
v 0.044517 0.000000 0.166139
v 0.000000 0.080000 0.188000
v -0.048658 0.080000 0.181594
v -0.094000 0.080000 0.162813
v -0.132936 0.080000 0.132936
v -0.162813 0.080000 0.094000
v -0.181594 0.080000 0.048658
v -0.188000 0.080000 0.000000
v -0.181594 0.080000 -0.048658
v -0.162813 0.080000 -0.094000
v -0.132936 0.080000 -0.132936
v -0.094000 0.080000 -0.162813
v -0.048658 0.080000 -0.181594
v -0.000000 0.080000 -0.188000
v 0.048658 0.080000 -0.181594
v 0.094000 0.080000 -0.162813
v 0.132936 0.080000 -0.132936
v 0.162813 0.080000 -0.094000
v 0.181594 0.080000 -0.048658
v 0.188000 0.080000 -0.000000
v 0.181594 0.080000 0.048658
v 0.162813 0.080000 0.094000
v 0.132936 0.080000 0.132936
v 0.094000 0.080000 0.162813
v 0.048658 0.080000 0.181594
v 0.000000 0.200000 0.212000
v -0.054870 0.200000 0.204776
v -0.106000 0.200000 0.183597
v -0.149907 0.200000 0.149907
v -0.183597 0.200000 0.106000
v -0.204776 0.200000 0.054870
v -0.212000 0.200000 0.000000
v -0.204776 0.200000 -0.054870
v -0.183597 0.200000 -0.106000
v -0.149907 0.200000 -0.149907
v -0.106000 0.200000 -0.183597
v -0.054870 0.200000 -0.204776
v -0.000000 0.200000 -0.212000
v 0.054870 0.200000 -0.204776
v 0.106000 0.200000 -0.183597
v 0.149907 0.200000 -0.149907
v 0.183597 0.200000 -0.106000
v 0.204776 0.200000 -0.054870
v 0.212000 0.200000 -0.000000
v 0.204776 0.200000 0.054870
v 0.183597 0.200000 0.106000
v 0.149907 0.200000 0.149907
v 0.106000 0.200000 0.183597
v 0.054870 0.200000 0.204776
v 0.000000 0.380000 0.236000
v -0.061081 0.380000 0.227959
v -0.118000 0.380000 0.204382
v -0.166877 0.380000 0.166877
v -0.204382 0.380000 0.118000
v -0.227959 0.380000 0.061081
v -0.236000 0.380000 0.000000
v -0.227959 0.380000 -0.061081
v -0.204382 0.380000 -0.118000
v -0.166877 0.380000 -0.166877
v -0.118000 0.380000 -0.204382
v -0.061081 0.380000 -0.227959
v -0.000000 0.380000 -0.236000
v 0.061081 0.380000 -0.227959
v 0.118000 0.380000 -0.204382
v 0.166877 0.380000 -0.166877
v 0.204382 0.380000 -0.118000
v 0.227959 0.380000 -0.061081
v 0.236000 0.380000 -0.000000
v 0.227959 0.380000 0.061081
v 0.204382 0.380000 0.118000
v 0.166877 0.380000 0.166877
v 0.118000 0.380000 0.204382
v 0.061081 0.380000 0.227959
v 0.000000 0.550000 0.245000
v -0.063411 0.550000 0.236652
v -0.122500 0.550000 0.212176
v -0.173241 0.550000 0.173241
v -0.212176 0.550000 0.122500
v -0.236652 0.550000 0.063411
v -0.245000 0.550000 0.000000
v -0.236652 0.550000 -0.063411
v -0.212176 0.550000 -0.122500
v -0.173241 0.550000 -0.173241
v -0.122500 0.550000 -0.212176
v -0.063411 0.550000 -0.236652
v -0.000000 0.550000 -0.245000
v 0.063411 0.550000 -0.236652
v 0.122500 0.550000 -0.212176
v 0.173241 0.550000 -0.173241
v 0.212176 0.550000 -0.122500
v 0.236652 0.550000 -0.063411
v 0.245000 0.550000 -0.000000
v 0.236652 0.550000 0.063411
v 0.212176 0.550000 0.122500
v 0.173241 0.550000 0.173241
v 0.122500 0.550000 0.212176
v 0.063411 0.550000 0.236652
v 0.000000 1.000000 0.245000
v -0.063411 1.000000 0.236652
v -0.122500 1.000000 0.212176
v -0.173241 1.000000 0.173241
v -0.212176 1.000000 0.122500
v -0.236652 1.000000 0.063411
v -0.245000 1.000000 0.000000
v -0.236652 1.000000 -0.063411
v -0.212176 1.000000 -0.122500
v -0.173241 1.000000 -0.173241
v -0.122500 1.000000 -0.212176
v -0.063411 1.000000 -0.236652
v -0.000000 1.000000 -0.245000
v 0.063411 1.000000 -0.236652
v 0.122500 1.000000 -0.212176
v 0.173241 1.000000 -0.173241
v 0.212176 1.000000 -0.122500
v 0.236652 1.000000 -0.063411
v 0.245000 1.000000 -0.000000
v 0.236652 1.000000 0.063411
v 0.212176 1.000000 0.122500
v 0.173241 1.000000 0.173241
v 0.122500 1.000000 0.212176
v 0.063411 1.000000 0.236652
v 0.000000 1.500000 0.245000
v -0.063411 1.500000 0.236652
v -0.122500 1.500000 0.212176
v -0.173241 1.500000 0.173241
v -0.212176 1.500000 0.122500
v -0.236652 1.500000 0.063411
v -0.245000 1.500000 0.000000
v -0.236652 1.500000 -0.063411
v -0.212176 1.500000 -0.122500
v -0.173241 1.500000 -0.173241
v -0.122500 1.500000 -0.212176
v -0.063411 1.500000 -0.236652
v -0.000000 1.500000 -0.245000
v 0.063411 1.500000 -0.236652
v 0.122500 1.500000 -0.212176
v 0.173241 1.500000 -0.173241
v 0.212176 1.500000 -0.122500
v 0.236652 1.500000 -0.063411
v 0.245000 1.500000 -0.000000
v 0.236652 1.500000 0.063411
v 0.212176 1.500000 0.122500
v 0.173241 1.500000 0.173241
v 0.122500 1.500000 0.212176
v 0.063411 1.500000 0.236652
v 0.000000 1.850000 0.245000
v -0.063411 1.850000 0.236652
v -0.122500 1.850000 0.212176
v -0.173241 1.850000 0.173241
v -0.212176 1.850000 0.122500
v -0.236652 1.850000 0.063411
v -0.245000 1.850000 0.000000
v -0.236652 1.850000 -0.063411
v -0.212176 1.850000 -0.122500
v -0.173241 1.850000 -0.173241
v -0.122500 1.850000 -0.212176
v -0.063411 1.850000 -0.236652
v -0.000000 1.850000 -0.245000
v 0.063411 1.850000 -0.236652
v 0.122500 1.850000 -0.212176
v 0.173241 1.850000 -0.173241
v 0.212176 1.850000 -0.122500
v 0.236652 1.850000 -0.063411
v 0.245000 1.850000 -0.000000
v 0.236652 1.850000 0.063411
v 0.212176 1.850000 0.122500
v 0.173241 1.850000 0.173241
v 0.122500 1.850000 0.212176
v 0.063411 1.850000 0.236652
v 0.000000 2.150000 0.245000
v -0.063411 2.150000 0.236652
v -0.122500 2.150000 0.212176
v -0.173241 2.150000 0.173241
v -0.212176 2.150000 0.122500
v -0.236652 2.150000 0.063411
v -0.245000 2.150000 0.000000
v -0.236652 2.150000 -0.063411
v -0.212176 2.150000 -0.122500
v -0.173241 2.150000 -0.173241
v -0.122500 2.150000 -0.212176
v -0.063411 2.150000 -0.236652
v -0.000000 2.150000 -0.245000
v 0.063411 2.150000 -0.236652
v 0.122500 2.150000 -0.212176
v 0.173241 2.150000 -0.173241
v 0.212176 2.150000 -0.122500
v 0.236652 2.150000 -0.063411
v 0.245000 2.150000 -0.000000
v 0.236652 2.150000 0.063411
v 0.212176 2.150000 0.122500
v 0.173241 2.150000 0.173241
v 0.122500 2.150000 0.212176
v 0.063411 2.150000 0.236652
v 0.000000 2.450000 0.245000
v -0.063411 2.450000 0.236652
v -0.122500 2.450000 0.212176
v -0.173241 2.450000 0.173241
v -0.212176 2.450000 0.122500
v -0.236652 2.450000 0.063411
v -0.245000 2.450000 0.000000
v -0.236652 2.450000 -0.063411
v -0.212176 2.450000 -0.122500
v -0.173241 2.450000 -0.173241
v -0.122500 2.450000 -0.212176
v -0.063411 2.450000 -0.236652
v -0.000000 2.450000 -0.245000
v 0.063411 2.450000 -0.236652
v 0.122500 2.450000 -0.212176
v 0.173241 2.450000 -0.173241
v 0.212176 2.450000 -0.122500
v 0.236652 2.450000 -0.063411
v 0.245000 2.450000 -0.000000
v 0.236652 2.450000 0.063411
v 0.212176 2.450000 0.122500
v 0.173241 2.450000 0.173241
v 0.122500 2.450000 0.212176
v 0.063411 2.450000 0.236652
v 0.000000 2.950000 0.245000
v -0.063411 2.950000 0.236652
v -0.122500 2.950000 0.212176
v -0.173241 2.950000 0.173241
v -0.212176 2.950000 0.122500
v -0.236652 2.950000 0.063411
v -0.245000 2.950000 0.000000
v -0.236652 2.950000 -0.063411
v -0.212176 2.950000 -0.122500
v -0.173241 2.950000 -0.173241
v -0.122500 2.950000 -0.212176
v -0.063411 2.950000 -0.236652
v -0.000000 2.950000 -0.245000
v 0.063411 2.950000 -0.236652
v 0.122500 2.950000 -0.212176
v 0.173241 2.950000 -0.173241
v 0.212176 2.950000 -0.122500
v 0.236652 2.950000 -0.063411
v 0.245000 2.950000 -0.000000
v 0.236652 2.950000 0.063411
v 0.212176 2.950000 0.122500
v 0.173241 2.950000 0.173241
v 0.122500 2.950000 0.212176
v 0.063411 2.950000 0.236652
v 0.000000 3.400000 0.245000
v -0.063411 3.400000 0.236652
v -0.122500 3.400000 0.212176
v -0.173241 3.400000 0.173241
v -0.212176 3.400000 0.122500
v -0.236652 3.400000 0.063411
v -0.245000 3.400000 0.000000
v -0.236652 3.400000 -0.063411
v -0.212176 3.400000 -0.122500
v -0.173241 3.400000 -0.173241
v -0.122500 3.400000 -0.212176
v -0.063411 3.400000 -0.236652
v -0.000000 3.400000 -0.245000
v 0.063411 3.400000 -0.236652
v 0.122500 3.400000 -0.212176
v 0.173241 3.400000 -0.173241
v 0.212176 3.400000 -0.122500
v 0.236652 3.400000 -0.063411
v 0.245000 3.400000 -0.000000
v 0.236652 3.400000 0.063411
v 0.212176 3.400000 0.122500
v 0.173241 3.400000 0.173241
v 0.122500 3.400000 0.212176
v 0.063411 3.400000 0.236652
v 0.000000 3.850000 0.245000
v -0.063411 3.850000 0.236652
v -0.122500 3.850000 0.212176
v -0.173241 3.850000 0.173241
v -0.212176 3.850000 0.122500
v -0.236652 3.850000 0.063411
v -0.245000 3.850000 0.000000
v -0.236652 3.850000 -0.063411
v -0.212176 3.850000 -0.122500
v -0.173241 3.850000 -0.173241
v -0.122500 3.850000 -0.212176
v -0.063411 3.850000 -0.236652
v -0.000000 3.850000 -0.245000
v 0.063411 3.850000 -0.236652
v 0.122500 3.850000 -0.212176
v 0.173241 3.850000 -0.173241
v 0.212176 3.850000 -0.122500
v 0.236652 3.850000 -0.063411
v 0.245000 3.850000 -0.000000
v 0.236652 3.850000 0.063411
v 0.212176 3.850000 0.122500
v 0.173241 3.850000 0.173241
v 0.122500 3.850000 0.212176
v 0.063411 3.850000 0.236652
v 0.000000 4.250000 0.245000
v -0.063411 4.250000 0.236652
v -0.122500 4.250000 0.212176
v -0.173241 4.250000 0.173241
v -0.212176 4.250000 0.122500
v -0.236652 4.250000 0.063411
v -0.245000 4.250000 0.000000
v -0.236652 4.250000 -0.063411
v -0.212176 4.250000 -0.122500
v -0.173241 4.250000 -0.173241
v -0.122500 4.250000 -0.212176
v -0.063411 4.250000 -0.236652
v -0.000000 4.250000 -0.245000
v 0.063411 4.250000 -0.236652
v 0.122500 4.250000 -0.212176
v 0.173241 4.250000 -0.173241
v 0.212176 4.250000 -0.122500
v 0.236652 4.250000 -0.063411
v 0.245000 4.250000 -0.000000
v 0.236652 4.250000 0.063411
v 0.212176 4.250000 0.122500
v 0.173241 4.250000 0.173241
v 0.122500 4.250000 0.212176
v 0.063411 4.250000 0.236652
v 0.000000 4.550000 0.232306
v -0.061167 4.550000 0.224629
v -0.118616 4.550000 0.201983
v -0.168619 4.550000 0.165571
v -0.207581 4.550000 0.117538
v -0.232397 4.550000 0.061017
v -0.240925 4.550000 0.000000
v -0.232397 4.550000 -0.061017
v -0.207581 4.550000 -0.117538
v -0.168619 4.550000 -0.165571
v -0.118616 4.550000 -0.201983
v -0.061167 4.550000 -0.224629
v -0.000000 4.550000 -0.232306
v 0.061167 4.550000 -0.224629
v 0.118616 4.550000 -0.201983
v 0.168619 4.550000 -0.165571
v 0.207581 4.550000 -0.117538
v 0.232397 4.550000 -0.061017
v 0.240925 4.550000 -0.000000
v 0.232397 4.550000 0.061017
v 0.207581 4.550000 0.117538
v 0.168619 4.550000 0.165571
v 0.118616 4.550000 0.201983
v 0.061167 4.550000 0.224629
v 0.000000 4.800000 0.205917
v -0.055010 4.800000 0.199294
v -0.107014 4.800000 0.179646
v -0.152774 4.800000 0.147756
v -0.188866 4.800000 0.105240
v -0.212086 4.800000 0.054764
v -0.220111 4.800000 0.000000
v -0.212086 4.800000 -0.054764
v -0.188866 4.800000 -0.105240
v -0.152774 4.800000 -0.147756
v -0.107014 4.800000 -0.179646
v -0.055010 4.800000 -0.199294
v -0.000000 4.800000 -0.205917
v 0.055010 4.800000 -0.199294
v 0.107014 4.800000 -0.179646
v 0.152774 4.800000 -0.147756
v 0.188866 4.800000 -0.105240
v 0.212086 4.800000 -0.054764
v 0.220111 4.800000 -0.000000
v 0.212086 4.800000 0.054764
v 0.188866 4.800000 0.105240
v 0.152774 4.800000 0.147756
v 0.107014 4.800000 0.179646
v 0.055010 4.800000 0.199294
v 0.000000 5.080000 0.148288
v -0.040272 5.080000 0.143669
v -0.078619 5.080000 0.129874
v -0.112766 5.080000 0.107228
v -0.140047 5.080000 0.076661
v -0.157784 5.080000 0.040001
v -0.163950 5.080000 0.000000
v -0.157784 5.080000 -0.040001
v -0.140047 5.080000 -0.076661
v -0.112766 5.080000 -0.107228
v -0.078619 5.080000 -0.129874
v -0.040272 5.080000 -0.143669
v -0.000000 5.080000 -0.148288
v 0.040272 5.080000 -0.143669
v 0.078619 5.080000 -0.129874
v 0.112766 5.080000 -0.107228
v 0.140047 5.080000 -0.076661
v 0.157784 5.080000 -0.040001
v 0.163950 5.080000 -0.000000
v 0.157784 5.080000 0.040001
v 0.140047 5.080000 0.076661
v 0.112766 5.080000 0.107228
v 0.078619 5.080000 0.129874
v 0.040272 5.080000 0.143669
v 0.000000 5.280000 0.089895
v -0.024706 5.280000 0.087162
v -0.048351 5.280000 0.078956
v -0.069582 5.280000 0.065370
v -0.086694 5.280000 0.046862
v -0.097898 5.280000 0.024499
v -0.101807 5.280000 0.000000
v -0.097898 5.280000 -0.024499
v -0.086694 5.280000 -0.046862
v -0.069582 5.280000 -0.065370
v -0.048351 5.280000 -0.078956
v -0.024706 5.280000 -0.087162
v -0.000000 5.280000 -0.089895
v 0.024706 5.280000 -0.087162
v 0.048351 5.280000 -0.078956
v 0.069582 5.280000 -0.065370
v 0.086694 5.280000 -0.046862
v 0.097898 5.280000 -0.024499
v 0.101807 5.280000 -0.000000
v 0.097898 5.280000 0.024499
v 0.086694 5.280000 0.046862
v 0.069582 5.280000 0.065370
v 0.048351 5.280000 0.078956
v 0.024706 5.280000 0.087162
v 0.000000 5.400000 0.035720
v -0.009888 5.400000 0.034650
v -0.019380 5.400000 0.031428
v -0.027945 5.400000 0.026064
v -0.034884 5.400000 0.018715
v -0.039445 5.400000 0.009796
v -0.041040 5.400000 0.000000
v -0.039445 5.400000 -0.009796
v -0.034884 5.400000 -0.018715
v -0.027945 5.400000 -0.026064
v -0.019380 5.400000 -0.031428
v -0.009888 5.400000 -0.034650
v -0.000000 5.400000 -0.035720
v 0.009888 5.400000 -0.034650
v 0.019380 5.400000 -0.031428
v 0.027945 5.400000 -0.026064
v 0.034884 5.400000 -0.018715
v 0.039445 5.400000 -0.009796
v 0.041040 5.400000 -0.000000
v 0.039445 5.400000 0.009796
v 0.034884 5.400000 0.018715
v 0.027945 5.400000 0.026064
v 0.019380 5.400000 0.031428
v 0.009888 5.400000 0.034650
v 0.000000 5.450000 0.000000
v -0.212000 4.825000 0.045000
v -0.212000 4.825000 -0.045000
v -0.212000 4.675000 0.045000
v -0.212000 4.675000 -0.045000
v -0.194000 4.788000 0.000000
v -0.228000 4.814000 0.000000
v -0.222000 4.804000 0.000000
v -0.228000 4.806385 0.018385
v -0.222000 4.799314 0.011314
v -0.228000 4.788000 0.026000
v -0.222000 4.788000 0.016000
v -0.228000 4.769615 0.018385
v -0.222000 4.776686 0.011314
v -0.228000 4.762000 0.000000
v -0.222000 4.772000 0.000000
v -0.228000 4.769615 -0.018385
v -0.222000 4.776686 -0.011314
v -0.228000 4.788000 -0.026000
v -0.222000 4.788000 -0.016000
v -0.228000 4.806385 -0.018385
v -0.222000 4.799314 -0.011314
v -0.194000 4.712000 0.000000
v -0.228000 4.738000 0.000000
v -0.222000 4.728000 0.000000
v -0.228000 4.730385 0.018385
v -0.222000 4.723314 0.011314
v -0.228000 4.712000 0.026000
v -0.222000 4.712000 0.016000
v -0.228000 4.693615 0.018385
v -0.222000 4.700686 0.011314
v -0.228000 4.686000 0.000000
v -0.222000 4.696000 0.000000
v -0.228000 4.693615 -0.018385
v -0.222000 4.700686 -0.011314
v -0.228000 4.712000 -0.026000
v -0.222000 4.712000 -0.016000
v -0.228000 4.730385 -0.018385
v -0.222000 4.723314 -0.011314
v 0.212000 4.825000 0.045000
v 0.212000 4.825000 -0.045000
v 0.212000 4.675000 0.045000
v 0.212000 4.675000 -0.045000
v 0.194000 4.788000 0.000000
v 0.228000 4.814000 0.000000
v 0.222000 4.804000 0.000000
v 0.228000 4.806385 0.018385
v 0.222000 4.799314 0.011314
v 0.228000 4.788000 0.026000
v 0.222000 4.788000 0.016000
v 0.228000 4.769615 0.018385
v 0.222000 4.776686 0.011314
v 0.228000 4.762000 0.000000
v 0.222000 4.772000 0.000000
v 0.228000 4.769615 -0.018385
v 0.222000 4.776686 -0.011314
v 0.228000 4.788000 -0.026000
v 0.222000 4.788000 -0.016000
v 0.228000 4.806385 -0.018385
v 0.222000 4.799314 -0.011314
v 0.194000 4.712000 0.000000
v 0.228000 4.738000 0.000000
v 0.222000 4.728000 0.000000
v 0.228000 4.730385 0.018385
v 0.222000 4.723314 0.011314
v 0.228000 4.712000 0.026000
v 0.222000 4.712000 0.016000
v 0.228000 4.693615 0.018385
v 0.222000 4.700686 0.011314
v 0.228000 4.686000 0.000000
v 0.222000 4.696000 0.000000
v 0.228000 4.693615 -0.018385
v 0.222000 4.700686 -0.011314
v 0.228000 4.712000 -0.026000
v 0.222000 4.712000 -0.016000
v 0.228000 4.730385 -0.018385
v 0.222000 4.723314 -0.011314
v 0.000000 0.002000 0.158000
v 0.000000 0.180000 0.138000
v 0.000000 0.380000 0.145000
v -0.040893 0.002000 0.152616
v -0.035717 0.180000 0.133298
v -0.037529 0.380000 0.140059
v -0.079000 0.002000 0.136832
v -0.069000 0.180000 0.119512
v -0.072500 0.380000 0.125574
v -0.111723 0.002000 0.111723
v -0.097581 0.180000 0.097581
v -0.102530 0.380000 0.102530
v -0.136832 0.002000 0.079000
v -0.119512 0.180000 0.069000
v -0.125574 0.380000 0.072500
v -0.152616 0.002000 0.040893
v -0.133298 0.180000 0.035717
v -0.140059 0.380000 0.037529
v -0.158000 0.002000 0.000000
v -0.138000 0.180000 0.000000
v -0.145000 0.380000 0.000000
v -0.152616 0.002000 -0.040893
v -0.133298 0.180000 -0.035717
v -0.140059 0.380000 -0.037529
v -0.136832 0.002000 -0.079000
v -0.119512 0.180000 -0.069000
v -0.125574 0.380000 -0.072500
v -0.111723 0.002000 -0.111723
v -0.097581 0.180000 -0.097581
v -0.102530 0.380000 -0.102530
v -0.079000 0.002000 -0.136832
v -0.069000 0.180000 -0.119512
v -0.072500 0.380000 -0.125574
v -0.040893 0.002000 -0.152616
v -0.035717 0.180000 -0.133298
v -0.037529 0.380000 -0.140059
v -0.000000 0.002000 -0.158000
v -0.000000 0.180000 -0.138000
v -0.000000 0.380000 -0.145000
v 0.040893 0.002000 -0.152616
v 0.035717 0.180000 -0.133298
v 0.037529 0.380000 -0.140059
v 0.079000 0.002000 -0.136832
v 0.069000 0.180000 -0.119512
v 0.072500 0.380000 -0.125574
v 0.111723 0.002000 -0.111723
v 0.097581 0.180000 -0.097581
v 0.102530 0.380000 -0.102530
v 0.136832 0.002000 -0.079000
v 0.119512 0.180000 -0.069000
v 0.125574 0.380000 -0.072500
v 0.152616 0.002000 -0.040893
v 0.133298 0.180000 -0.035717
v 0.140059 0.380000 -0.037529
v 0.158000 0.002000 -0.000000
v 0.138000 0.180000 -0.000000
v 0.145000 0.380000 -0.000000
v 0.152616 0.002000 0.040893
v 0.133298 0.180000 0.035717
v 0.140059 0.380000 0.037529
v 0.136832 0.002000 0.079000
v 0.119512 0.180000 0.069000
v 0.125574 0.380000 0.072500
v 0.111723 0.002000 0.111723
v 0.097581 0.180000 0.097581
v 0.102530 0.380000 0.102530
v 0.079000 0.002000 0.136832
v 0.069000 0.180000 0.119512
v 0.072500 0.380000 0.125574
v 0.040893 0.002000 0.152616
v 0.035717 0.180000 0.133298
v 0.037529 0.380000 0.140059
v 0.000000 0.380000 0.048000
v -0.012423 0.380000 0.046364
v -0.024000 0.380000 0.041569
v -0.033941 0.380000 0.033941
v -0.041569 0.380000 0.024000
v -0.046364 0.380000 0.012423
v -0.048000 0.380000 0.000000
v -0.046364 0.380000 -0.012423
v -0.041569 0.380000 -0.024000
v -0.033941 0.380000 -0.033941
v -0.024000 0.380000 -0.041569
v -0.012423 0.380000 -0.046364
v -0.000000 0.380000 -0.048000
v 0.012423 0.380000 -0.046364
v 0.024000 0.380000 -0.041569
v 0.033941 0.380000 -0.033941
v 0.041569 0.380000 -0.024000
v 0.046364 0.380000 -0.012423
v 0.048000 0.380000 -0.000000
v 0.046364 0.380000 0.012423
v 0.041569 0.380000 0.024000
v 0.033941 0.380000 0.033941
v 0.024000 0.380000 0.041569
v 0.012423 0.380000 0.046364
v 0.000000 0.120000 0.000000
v 0.003000 0.360000 0.048000
v -0.003000 0.360000 0.048000
v 0.000000 0.220000 0.048000
v 0.003000 0.360000 0.138000
v -0.003000 0.360000 0.138000
v 0.000000 0.200000 0.138000
v -0.031820 0.360000 0.036062
v -0.036062 0.360000 0.031820
v -0.033941 0.220000 0.033941
v -0.095459 0.360000 0.099702
v -0.099702 0.360000 0.095459
v -0.097581 0.200000 0.097581
v -0.048000 0.360000 0.003000
v -0.048000 0.360000 -0.003000
v -0.048000 0.220000 0.000000
v -0.138000 0.360000 0.003000
v -0.138000 0.360000 -0.003000
v -0.138000 0.200000 0.000000
v -0.036062 0.360000 -0.031820
v -0.031820 0.360000 -0.036062
v -0.033941 0.220000 -0.033941
v -0.099702 0.360000 -0.095459
v -0.095459 0.360000 -0.099702
v -0.097581 0.200000 -0.097581
v -0.003000 0.360000 -0.048000
v 0.003000 0.360000 -0.048000
v -0.000000 0.220000 -0.048000
v -0.003000 0.360000 -0.138000
v 0.003000 0.360000 -0.138000
v -0.000000 0.200000 -0.138000
v 0.031820 0.360000 -0.036062
v 0.036062 0.360000 -0.031820
v 0.033941 0.220000 -0.033941
v 0.095459 0.360000 -0.099702
v 0.099702 0.360000 -0.095459
v 0.097581 0.200000 -0.097581
v 0.048000 0.360000 -0.003000
v 0.048000 0.360000 0.003000
v 0.048000 0.220000 -0.000000
v 0.138000 0.360000 -0.003000
v 0.138000 0.360000 0.003000
v 0.138000 0.200000 -0.000000
v 0.036062 0.360000 0.031820
v 0.031820 0.360000 0.036062
v 0.033941 0.220000 0.033941
v 0.099702 0.360000 0.095459
v 0.095459 0.360000 0.099702
v 0.097581 0.200000 0.097581
v 0.108000 2.550000 -0.344000
v -0.108000 2.550000 -0.344000
v 0.108000 2.600000 -0.240000
v -0.108000 2.600000 -0.240000
v 0.094000 2.520000 -0.330000
v -0.094000 2.520000 -0.330000
v 0.094000 2.560000 -0.246000
v -0.094000 2.560000 -0.246000
v 0.091800 2.050000 -0.277000
v -0.091800 2.050000 -0.277000
v 0.120960 2.000000 -0.350000
v -0.120960 2.000000 -0.350000
v 0.120960 2.000000 -0.240000
v -0.120960 2.000000 -0.240000
v 0.070200 1.550000 -0.297000
v -0.070200 1.550000 -0.297000
v 0.070200 1.550000 -0.240000
v -0.070200 1.550000 -0.240000
v 0.000000 1.300000 -0.241000
v 0.000000 2.620000 -0.244000
v 0.000000 2.600000 -0.342000
v 0.000000 2.400000 -0.244000
v 0.000000 2.400000 -0.342000
v -0.157685 2.450000 0.174655
v -0.174655 2.450000 0.157685
v -0.157685 1.800000 0.174655
v -0.174655 1.800000 0.157685
v -0.214960 2.400000 0.237588
v -0.237588 2.400000 0.214960
v -0.214960 1.830000 0.237588
v -0.237588 1.830000 0.214960
v -0.243245 2.370000 0.265872
v -0.265872 2.370000 0.243245
v -0.243245 1.850000 0.265872
v -0.265872 1.850000 0.243245
v -0.369110 2.260000 0.380423
v -0.380423 2.260000 0.369110
v -0.369110 1.900000 0.380423
v -0.380423 1.900000 0.369110
v -0.506996 2.140000 0.511238
v -0.511238 2.140000 0.506996
v -0.506996 1.940000 0.511238
v -0.511238 1.940000 0.506996
v 0.174655 2.450000 0.157685
v 0.157685 2.450000 0.174655
v 0.174655 1.800000 0.157685
v 0.157685 1.800000 0.174655
v 0.237588 2.400000 0.214960
v 0.214960 2.400000 0.237588
v 0.237588 1.830000 0.214960
v 0.214960 1.830000 0.237588
v 0.265872 2.370000 0.243245
v 0.243245 2.370000 0.265872
v 0.265872 1.850000 0.243245
v 0.243245 1.850000 0.265872
v 0.380423 2.260000 0.369110
v 0.369110 2.260000 0.380423
v 0.380423 1.900000 0.369110
v 0.369110 1.900000 0.380423
v 0.511238 2.140000 0.506996
v 0.506996 2.140000 0.511238
v 0.511238 1.940000 0.506996
v 0.506996 1.940000 0.511238
v 0.157685 2.450000 -0.174655
v 0.174655 2.450000 -0.157685
v 0.157685 1.800000 -0.174655
v 0.174655 1.800000 -0.157685
v 0.214960 2.400000 -0.237588
v 0.237588 2.400000 -0.214960
v 0.214960 1.830000 -0.237588
v 0.237588 1.830000 -0.214960
v 0.243245 2.370000 -0.265872
v 0.265872 2.370000 -0.243245
v 0.243245 1.850000 -0.265872
v 0.265872 1.850000 -0.243245
v 0.369110 2.260000 -0.380423
v 0.380423 2.260000 -0.369110
v 0.369110 1.900000 -0.380423
v 0.380423 1.900000 -0.369110
v 0.506996 2.140000 -0.511238
v 0.511238 2.140000 -0.506996
v 0.506996 1.940000 -0.511238
v 0.511238 1.940000 -0.506996
v -0.174655 2.450000 -0.157685
v -0.157685 2.450000 -0.174655
v -0.174655 1.800000 -0.157685
v -0.157685 1.800000 -0.174655
v -0.237588 2.400000 -0.214960
v -0.214960 2.400000 -0.237588
v -0.237588 1.830000 -0.214960
v -0.214960 1.830000 -0.237588
v -0.265872 2.370000 -0.243245
v -0.243245 2.370000 -0.265872
v -0.265872 1.850000 -0.243245
v -0.243245 1.850000 -0.265872
v -0.380423 2.260000 -0.369110
v -0.369110 2.260000 -0.380423
v -0.380423 1.900000 -0.369110
v -0.369110 1.900000 -0.380423
v -0.511238 2.140000 -0.506996
v -0.506996 2.140000 -0.511238
v -0.511238 1.940000 -0.506996
v -0.506996 1.940000 -0.511238
v -0.141421 0.720000 0.155563
v -0.155563 0.720000 0.141421
v -0.141421 0.180000 0.155563
v -0.155563 0.180000 0.141421
v -0.236174 0.580000 0.244659
v -0.244659 0.580000 0.236174
v -0.236174 0.200000 0.244659
v -0.244659 0.200000 0.236174
v -0.337290 0.440000 0.341533
v -0.341533 0.440000 0.337290
v -0.337290 0.240000 0.341533
v -0.341533 0.240000 0.337290
v -0.166877 0.560000 0.166877
v -0.166877 0.320000 0.166877
v -0.182434 0.440000 0.182434
v -0.151321 0.440000 0.182434
v -0.182434 0.440000 0.151321
v 0.155563 0.720000 0.141421
v 0.141421 0.720000 0.155563
v 0.155563 0.180000 0.141421
v 0.141421 0.180000 0.155563
v 0.244659 0.580000 0.236174
v 0.236174 0.580000 0.244659
v 0.244659 0.200000 0.236174
v 0.236174 0.200000 0.244659
v 0.341533 0.440000 0.337290
v 0.337290 0.440000 0.341533
v 0.341533 0.240000 0.337290
v 0.337290 0.240000 0.341533
v 0.166877 0.560000 0.166877
v 0.166877 0.320000 0.166877
v 0.182434 0.440000 0.182434
v 0.182434 0.440000 0.151321
v 0.151321 0.440000 0.182434
v 0.141421 0.720000 -0.155563
v 0.155563 0.720000 -0.141421
v 0.141421 0.180000 -0.155563
v 0.155563 0.180000 -0.141421
v 0.236174 0.580000 -0.244659
v 0.244659 0.580000 -0.236174
v 0.236174 0.200000 -0.244659
v 0.244659 0.200000 -0.236174
v 0.337290 0.440000 -0.341533
v 0.341533 0.440000 -0.337290
v 0.337290 0.240000 -0.341533
v 0.341533 0.240000 -0.337290
v 0.166877 0.560000 -0.166877
v 0.166877 0.320000 -0.166877
v 0.182434 0.440000 -0.182434
v 0.151321 0.440000 -0.182434
v 0.182434 0.440000 -0.151321
v -0.155563 0.720000 -0.141421
v -0.141421 0.720000 -0.155563
v -0.155563 0.180000 -0.141421
v -0.141421 0.180000 -0.155563
v -0.244659 0.580000 -0.236174
v -0.236174 0.580000 -0.244659
v -0.244659 0.200000 -0.236174
v -0.236174 0.200000 -0.244659
v -0.341533 0.440000 -0.337290
v -0.337290 0.440000 -0.341533
v -0.341533 0.240000 -0.337290
v -0.337290 0.240000 -0.341533
v -0.166877 0.560000 -0.166877
v -0.166877 0.320000 -0.166877
v -0.182434 0.440000 -0.182434
v -0.182434 0.440000 -0.151321
v -0.151321 0.440000 -0.182434
v 0.000000 5.450000 0.007000
v 0.000000 5.620000 0.003500
v -0.006062 5.450000 0.003500
v -0.003031 5.620000 0.001750
v -0.006062 5.450000 -0.003500
v -0.003031 5.620000 -0.001750
v -0.000000 5.450000 -0.007000
v -0.000000 5.620000 -0.003500
v 0.006062 5.450000 -0.003500
v 0.003031 5.620000 -0.001750
v 0.006062 5.450000 0.003500
v 0.003031 5.620000 0.001750
v 0.000000 5.670000 0.000000
vn -0.0000 0.7899 -0.6133
vn 0.1587 0.7899 -0.5924
vn 0.3066 0.7899 -0.5311
vn 0.4337 0.7899 -0.4337
vn 0.5311 0.7899 -0.3066
vn 0.5924 0.7899 -0.1587
vn 0.6133 0.7899 -0.0000
vn 0.5924 0.7899 0.1587
vn 0.5311 0.7899 0.3066
vn 0.4337 0.7899 0.4337
vn 0.3066 0.7899 0.5311
vn 0.1587 0.7899 0.5924
vn -0.0000 0.7899 0.6133
vn -0.1587 0.7899 0.5924
vn -0.3066 0.7899 0.5311
vn -0.4337 0.7899 0.4337
vn -0.5311 0.7899 0.3066
vn -0.5924 0.7899 0.1587
vn -0.6133 0.7899 -0.0000
vn -0.5924 0.7899 -0.1587
vn -0.5311 0.7899 -0.3066
vn -0.4337 0.7899 -0.4337
vn -0.3066 0.7899 -0.5311
vn -0.1587 0.7899 -0.5924
vn -0.0000 0.1961 -0.9806
vn 0.2538 0.1961 -0.9472
vn 0.4903 0.1961 -0.8492
vn 0.6934 0.1961 -0.6934
vn 0.8492 0.1961 -0.4903
vn 0.9472 0.1961 -0.2538
vn 0.9806 0.1961 -0.0000
vn 0.9472 0.1961 0.2538
vn 0.8492 0.1961 0.4903
vn 0.6934 0.1961 0.6934
vn 0.4903 0.1961 0.8492
vn 0.2538 0.1961 0.9472
vn -0.0000 0.1961 0.9806
vn -0.2538 0.1961 0.9472
vn -0.4903 0.1961 0.8492
vn -0.6934 0.1961 0.6934
vn -0.8492 0.1961 0.4903
vn -0.9472 0.1961 0.2538
vn -0.9806 0.1961 -0.0000
vn -0.9472 0.1961 -0.2538
vn -0.8492 0.1961 -0.4903
vn -0.6934 0.1961 -0.6934
vn -0.4903 0.1961 -0.8492
vn -0.2538 0.1961 -0.9472
vn -0.0000 0.1638 -0.9865
vn 0.2553 0.1638 -0.9529
vn 0.4932 0.1638 -0.8543
vn 0.6976 0.1638 -0.6976
vn 0.8543 0.1638 -0.4932
vn 0.9529 0.1638 -0.2553
vn 0.9865 0.1638 -0.0000
vn 0.9529 0.1638 0.2553
vn 0.8543 0.1638 0.4932
vn 0.6976 0.1638 0.6976
vn 0.4932 0.1638 0.8543
vn 0.2553 0.1638 0.9529
vn -0.0000 0.1638 0.9865
vn -0.2553 0.1638 0.9529
vn -0.4932 0.1638 0.8543
vn -0.6976 0.1638 0.6976
vn -0.8543 0.1638 0.4932
vn -0.9529 0.1638 0.2553
vn -0.9865 0.1638 -0.0000
vn -0.9529 0.1638 -0.2553
vn -0.8543 0.1638 -0.4932
vn -0.6976 0.1638 -0.6976
vn -0.4932 0.1638 -0.8543
vn -0.2553 0.1638 -0.9529
vn -0.0000 0.0923 -0.9957
vn 0.2577 0.0923 -0.9618
vn 0.4979 0.0923 -0.8623
vn 0.7041 0.0923 -0.7041
vn 0.8623 0.0923 -0.4979
vn 0.9618 0.0923 -0.2577
vn 0.9957 0.0923 -0.0000
vn 0.9618 0.0923 0.2577
vn 0.8623 0.0923 0.4979
vn 0.7041 0.0923 0.7041
vn 0.4979 0.0923 0.8623
vn 0.2577 0.0923 0.9618
vn -0.0000 0.0923 0.9957
vn -0.2577 0.0923 0.9618
vn -0.4979 0.0923 0.8623
vn -0.7041 0.0923 0.7041
vn -0.8623 0.0923 0.4979
vn -0.9618 0.0923 0.2577
vn -0.9957 0.0923 -0.0000
vn -0.9618 0.0923 -0.2577
vn -0.8623 0.0923 -0.4979
vn -0.7041 0.0923 -0.7041
vn -0.4979 0.0923 -0.8623
vn -0.2577 0.0923 -0.9618
vn -0.0000 0.0264 -0.9997
vn 0.2587 0.0264 -0.9656
vn 0.4998 0.0264 -0.8657
vn 0.7069 0.0264 -0.7069
vn 0.8657 0.0264 -0.4998
vn 0.9656 0.0264 -0.2587
vn 0.9997 0.0264 -0.0000
vn 0.9656 0.0264 0.2587
vn 0.8657 0.0264 0.4998
vn 0.7069 0.0264 0.7069
vn 0.4998 0.0264 0.8657
vn 0.2587 0.0264 0.9656
vn -0.0000 0.0264 0.9997
vn -0.2587 0.0264 0.9656
vn -0.4998 0.0264 0.8657
vn -0.7069 0.0264 0.7069
vn -0.8657 0.0264 0.4998
vn -0.9656 0.0264 0.2587
vn -0.9997 0.0264 -0.0000
vn -0.9656 0.0264 -0.2587
vn -0.8657 0.0264 -0.4998
vn -0.7069 0.0264 -0.7069
vn -0.4998 0.0264 -0.8657
vn -0.2587 0.0264 -0.9656
vn -0.0000 -0.0000 -1.0000
vn 0.2588 -0.0000 -0.9659
vn 0.5000 -0.0000 -0.8660
vn 0.7071 -0.0000 -0.7071
vn 0.8660 -0.0000 -0.5000
vn 0.9659 -0.0000 -0.2588
vn 1.0000 -0.0000 -0.0000
vn 0.9659 -0.0000 0.2588
vn 0.8660 -0.0000 0.5000
vn 0.7071 -0.0000 0.7071
vn 0.5000 -0.0000 0.8660
vn 0.2588 -0.0000 0.9659
vn -0.0000 -0.0000 1.0000
vn -0.2588 -0.0000 0.9659
vn -0.5000 -0.0000 0.8660
vn -0.7071 -0.0000 0.7071
vn -0.8660 -0.0000 0.5000
vn -0.9659 -0.0000 0.2588
vn -1.0000 -0.0000 -0.0000
vn -0.9659 -0.0000 -0.2588
vn -0.8660 -0.0000 -0.5000
vn -0.7071 -0.0000 -0.7071
vn -0.5000 -0.0000 -0.8660
vn -0.2588 -0.0000 -0.9659
vn -0.0000 -0.0208 -0.9998
vn 0.2559 -0.0200 -0.9665
vn 0.4952 -0.0177 -0.8686
vn 0.7023 -0.0145 -0.7117
vn 0.8629 -0.0110 -0.5053
vn 0.9649 -0.0082 -0.2624
vn 1.0000 -0.0072 -0.0000
vn 0.9649 -0.0082 0.2624
vn 0.8629 -0.0110 0.5053
vn 0.7023 -0.0145 0.7117
vn 0.4952 -0.0177 0.8686
vn 0.2559 -0.0200 0.9665
vn -0.0000 -0.0208 0.9998
vn -0.2559 -0.0200 0.9665
vn -0.4952 -0.0177 0.8686
vn -0.7023 -0.0145 0.7117
vn -0.8629 -0.0110 0.5053
vn -0.9649 -0.0082 0.2624
vn -1.0000 -0.0072 -0.0000
vn -0.9649 -0.0082 -0.2624
vn -0.8629 -0.0110 -0.5053
vn -0.7023 -0.0145 -0.7117
vn -0.4952 -0.0177 -0.8686
vn -0.2559 -0.0200 -0.9665
vn -0.0000 -0.0729 -0.9973
vn 0.2477 -0.0715 -0.9662
vn 0.4817 -0.0675 -0.8737
vn 0.6884 -0.0618 -0.7227
vn 0.8533 -0.0556 -0.5185
vn 0.9611 -0.0508 -0.2715
vn 0.9988 -0.0489 -0.0000
vn 0.9611 -0.0508 0.2715
vn 0.8533 -0.0556 0.5185
vn 0.6884 -0.0618 0.7227
vn 0.4817 -0.0675 0.8737
vn 0.2477 -0.0715 0.9662
vn -0.0000 -0.0729 0.9973
vn -0.2477 -0.0715 0.9662
vn -0.4817 -0.0675 0.8737
vn -0.6884 -0.0618 0.7227
vn -0.8533 -0.0556 0.5185
vn -0.9611 -0.0508 0.2715
vn -0.9988 -0.0489 -0.0000
vn -0.9611 -0.0508 -0.2715
vn -0.8533 -0.0556 -0.5185
vn -0.6884 -0.0618 -0.7227
vn -0.4817 -0.0675 -0.8737
vn -0.2477 -0.0715 -0.9662
vn -0.0000 -0.1524 -0.9883
vn 0.2360 -0.1517 -0.9599
vn 0.4617 -0.1495 -0.8743
vn 0.6663 -0.1465 -0.7312
vn 0.8352 -0.1433 -0.5310
vn 0.9494 -0.1409 -0.2808
vn 0.9902 -0.1400 -0.0000
vn 0.9494 -0.1409 0.2808
vn 0.8352 -0.1433 0.5310
vn 0.6663 -0.1465 0.7312
vn 0.4617 -0.1495 0.8743
vn 0.2360 -0.1517 0.9599
vn -0.0000 -0.1524 0.9883
vn -0.2360 -0.1517 0.9599
vn -0.4617 -0.1495 0.8743
vn -0.6663 -0.1465 0.7312
vn -0.8352 -0.1433 0.5310
vn -0.9494 -0.1409 0.2808
vn -0.9902 -0.1400 -0.0000
vn -0.9494 -0.1409 -0.2808
vn -0.8352 -0.1433 -0.5310
vn -0.6663 -0.1465 -0.7312
vn -0.4617 -0.1495 -0.8743
vn -0.2360 -0.1517 -0.9599
vn -0.0000 -0.2401 -0.9708
vn 0.2229 -0.2403 -0.9448
vn 0.4387 -0.2410 -0.8657
vn 0.6385 -0.2423 -0.7305
vn 0.8083 -0.2440 -0.5359
vn 0.9263 -0.2456 -0.2857
vn 0.9692 -0.2463 -0.0000
vn 0.9263 -0.2456 0.2857
vn 0.8083 -0.2440 0.5359
vn 0.6385 -0.2423 0.7305
vn 0.4387 -0.2410 0.8657
vn 0.2229 -0.2403 0.9448
vn -0.0000 -0.2401 0.9708
vn -0.2229 -0.2403 0.9448
vn -0.4387 -0.2410 0.8657
vn -0.6385 -0.2423 0.7305
vn -0.8083 -0.2440 0.5359
vn -0.9263 -0.2456 0.2857
vn -0.9692 -0.2463 -0.0000
vn -0.9263 -0.2456 -0.2857
vn -0.8083 -0.2440 -0.5359
vn -0.6385 -0.2423 -0.7305
vn -0.4387 -0.2410 -0.8657
vn -0.2229 -0.2403 -0.9448
vn -0.0000 -0.3450 -0.9386
vn 0.2085 -0.3463 -0.9147
vn 0.4120 -0.3502 -0.8412
vn 0.6031 -0.3565 -0.7136
vn 0.7683 -0.3639 -0.5266
vn 0.8850 -0.3703 -0.2821
vn 0.9279 -0.3729 -0.0000
vn 0.8850 -0.3703 0.2821
vn 0.7683 -0.3639 0.5266
vn 0.6031 -0.3565 0.7136
vn 0.4120 -0.3502 0.8412
vn 0.2085 -0.3463 0.9147
vn -0.0000 -0.3450 0.9386
vn -0.2085 -0.3463 0.9147
vn -0.4120 -0.3502 0.8412
vn -0.6031 -0.3565 0.7136
vn -0.7683 -0.3639 0.5266
vn -0.8850 -0.3703 0.2821
vn -0.9279 -0.3729 -0.0000
vn -0.8850 -0.3703 -0.2821
vn -0.7683 -0.3639 -0.5266
vn -0.6031 -0.3565 -0.7136
vn -0.4120 -0.3502 -0.8412
vn -0.2085 -0.3463 -0.9147
vn -0.0000 -0.4959 -0.8684
vn 0.1887 -0.4981 -0.8463
vn 0.3730 -0.5048 -0.7785
vn 0.5462 -0.5151 -0.6605
vn 0.6961 -0.5272 -0.4874
vn 0.8019 -0.5373 -0.2611
vn 0.8408 -0.5414 -0.0000
vn 0.8019 -0.5373 0.2611
vn 0.6961 -0.5272 0.4874
vn 0.5462 -0.5151 0.6605
vn 0.3730 -0.5048 0.7785
vn 0.1887 -0.4981 0.8463
vn -0.0000 -0.4959 0.8684
vn -0.1887 -0.4981 0.8463
vn -0.3730 -0.5048 0.7785
vn -0.5462 -0.5151 0.6605
vn -0.6961 -0.5272 0.4874
vn -0.8019 -0.5373 0.2611
vn -0.8408 -0.5414 -0.0000
vn -0.8019 -0.5373 -0.2611
vn -0.6961 -0.5272 -0.4874
vn -0.5462 -0.5151 -0.6605
vn -0.3730 -0.5048 -0.7785
vn -0.1887 -0.4981 -0.8463
vn -0.0000 -1.0000 -0.0000
vn 0.8575 0.5145 -0.0000
vn 0.7321 0.6812 -0.0000
vn 0.8575 0.3638 0.3638
vn 0.7321 0.4817 0.4817
vn 0.8575 -0.0000 0.5145
vn 0.7321 -0.0000 0.6812
vn 0.8575 -0.3638 0.3638
vn 0.7321 -0.4817 0.4817
vn 0.8575 -0.5145 -0.0000
vn 0.7321 -0.6812 -0.0000
vn 0.8575 -0.3638 -0.3638
vn 0.7321 -0.4817 -0.4817
vn 0.8575 -0.0000 -0.5145
vn 0.7321 -0.0000 -0.6812
vn 0.8575 0.3638 -0.3638
vn 0.7321 0.4817 -0.4817
vn -0.8575 0.5145 -0.0000
vn -0.7321 0.6812 -0.0000
vn -0.8575 0.3638 0.3638
vn -0.7321 0.4817 0.4817
vn -0.8575 -0.0000 0.5145
vn -0.7321 -0.0000 0.6812
vn -0.8575 -0.3638 0.3638
vn -0.7321 -0.4817 0.4817
vn -0.8575 -0.5145 -0.0000
vn -0.7321 -0.6812 -0.0000
vn -0.8575 -0.3638 -0.3638
vn -0.7321 -0.4817 -0.4817
vn -0.8575 -0.0000 -0.5145
vn -0.7321 -0.0000 -0.6812
vn -0.8575 0.3638 -0.3638
vn -0.7321 0.4817 -0.4817
vn -0.0000 0.7228 0.6911
vn -0.0000 0.0387 0.9993
vn -0.0000 0.6660 0.7459
vn -0.1789 0.7228 0.6675
vn -0.2586 0.0387 0.9652
vn -0.1931 0.6660 0.7205
vn -0.3455 0.7228 0.5985
vn -0.4996 0.0387 0.8654
vn -0.3730 0.6660 0.6460
vn -0.4887 0.7228 0.4887
vn -0.7066 0.0387 0.7066
vn -0.5275 0.6660 0.5275
vn -0.5985 0.7228 0.3455
vn -0.8654 0.0387 0.4996
vn -0.6460 0.6660 0.3730
vn -0.6675 0.7228 0.1789
vn -0.9652 0.0387 0.2586
vn -0.7205 0.6660 0.1931
vn -0.6911 0.7228 -0.0000
vn -0.9993 0.0387 -0.0000
vn -0.7459 0.6660 -0.0000
vn -0.6675 0.7228 -0.1789
vn -0.9652 0.0387 -0.2586
vn -0.7205 0.6660 -0.1931
vn -0.5985 0.7228 -0.3455
vn -0.8654 0.0387 -0.4996
vn -0.6460 0.6660 -0.3730
vn -0.4887 0.7228 -0.4887
vn -0.7066 0.0387 -0.7066
vn -0.5275 0.6660 -0.5275
vn -0.3455 0.7228 -0.5985
vn -0.4996 0.0387 -0.8654
vn -0.3730 0.6660 -0.6460
vn -0.1789 0.7228 -0.6675
vn -0.2586 0.0387 -0.9652
vn -0.1931 0.6660 -0.7205
vn -0.0000 0.7228 -0.6911
vn -0.0000 0.0387 -0.9993
vn -0.0000 0.6660 -0.7459
vn 0.1789 0.7228 -0.6675
vn 0.2586 0.0387 -0.9652
vn 0.1931 0.6660 -0.7205
vn 0.3455 0.7228 -0.5985
vn 0.4996 0.0387 -0.8654
vn 0.3730 0.6660 -0.6460
vn 0.4887 0.7228 -0.4887
vn 0.7066 0.0387 -0.7066
vn 0.5275 0.6660 -0.5275
vn 0.5985 0.7228 -0.3455
vn 0.8654 0.0387 -0.4996
vn 0.6460 0.6660 -0.3730
vn 0.6675 0.7228 -0.1789
vn 0.9652 0.0387 -0.2586
vn 0.7205 0.6660 -0.1931
vn 0.6911 0.7228 -0.0000
vn 0.9993 0.0387 -0.0000
vn 0.7459 0.6660 -0.0000
vn 0.6675 0.7228 0.1789
vn 0.9652 0.0387 0.2586
vn 0.7205 0.6660 0.1931
vn 0.5985 0.7228 0.3455
vn 0.8654 0.0387 0.4996
vn 0.6460 0.6660 0.3730
vn 0.4887 0.7228 0.4887
vn 0.7066 0.0387 0.7066
vn 0.5275 0.6660 0.5275
vn 0.3455 0.7228 0.5985
vn 0.4996 0.0387 0.8654
vn 0.3730 0.6660 0.6460
vn 0.1789 0.7228 0.6675
vn 0.2586 0.0387 0.9652
vn 0.1931 0.6660 0.7205
vn -0.0000 0.7954 -0.6061
vn 0.1569 0.7954 -0.5854
vn 0.3030 0.7954 -0.5249
vn 0.4286 0.7954 -0.4286
vn 0.5249 0.7954 -0.3030
vn 0.5854 0.7954 -0.1569
vn 0.6061 0.7954 -0.0000
vn 0.5854 0.7954 0.1569
vn 0.5249 0.7954 0.3030
vn 0.4286 0.7954 0.4286
vn 0.3030 0.7954 0.5249
vn 0.1569 0.7954 0.5854
vn -0.0000 0.7954 0.6061
vn -0.1569 0.7954 0.5854
vn -0.3030 0.7954 0.5249
vn -0.4286 0.7954 0.4286
vn -0.5249 0.7954 0.3030
vn -0.5854 0.7954 0.1569
vn -0.6061 0.7954 -0.0000
vn -0.5854 0.7954 -0.1569
vn -0.5249 0.7954 -0.3030
vn -0.4286 0.7954 -0.4286
vn -0.3030 0.7954 -0.5249
vn -0.1569 0.7954 -0.5854
vn -0.0000 1.0000 -0.0000
vn 0.9998 -0.0200 -0.0022
vn -0.9998 -0.0200 -0.0022
vn -0.0000 -0.9939 -0.1104
vn 0.7085 -0.0200 0.7054
vn -0.7054 -0.0200 -0.7085
vn 0.0781 -0.9939 -0.0781
vn 0.0022 -0.0200 0.9998
vn 0.0022 -0.0200 -0.9998
vn 0.1104 -0.9939 -0.0000
vn -0.7054 -0.0200 0.7085
vn 0.7085 -0.0200 -0.7054
vn 0.0781 -0.9939 0.0781
vn -0.9998 -0.0200 0.0022
vn 0.9998 -0.0200 0.0022
vn -0.0000 -0.9939 0.1104
vn -0.7085 -0.0200 -0.7054
vn 0.7054 -0.0200 0.7085
vn -0.0781 -0.9939 0.0781
vn -0.0022 -0.0200 -0.9998
vn -0.0022 -0.0200 0.9998
vn -0.1104 -0.9939 -0.0000
vn 0.7054 -0.0200 -0.7085
vn -0.7085 -0.0200 0.7054
vn -0.0781 -0.9939 -0.0781
vn 0.3839 0.7465 -0.5434
vn -0.3839 0.7465 -0.5434
vn 0.1255 0.3700 -0.9205
vn -0.1255 0.3700 -0.9205
vn -0.6959 0.3255 0.6402
vn 0.6959 0.3255 0.6402
vn -0.7751 0.2640 -0.5740
vn 0.7751 0.2640 -0.5740
vn -0.1091 0.1119 0.9877
vn 0.1091 0.1119 0.9877
vn 0.7056 -0.0661 -0.7056
vn -0.7056 -0.0661 -0.7056
vn 0.9990 -0.0449 -0.0026
vn -0.9990 -0.0449 -0.0026
vn 0.6912 -0.2404 -0.6815
vn -0.6912 -0.2404 -0.6815
vn 0.9814 -0.1917 -0.0000
vn -0.9814 -0.1917 -0.0000
vn -0.0000 -0.4088 -0.9126
vn 0.6813 0.7268 0.0872
vn -0.0872 0.7268 -0.6813
vn 0.7324 -0.6795 0.0439
vn -0.0439 -0.6795 -0.7324
vn 0.2319 0.6001 0.7656
vn -0.7656 0.6001 -0.2319
vn 0.3119 -0.6625 0.6811
vn -0.6811 -0.6625 -0.3119
vn 0.2191 0.5673 0.7938
vn -0.7938 0.5673 -0.2191
vn 0.3305 -0.6311 0.7018
vn -0.7018 -0.6311 -0.3305
vn 0.2070 0.5900 0.7804
vn -0.7804 0.5900 -0.2070
vn 0.3620 -0.6758 0.6421
vn -0.6421 -0.6758 -0.3620
vn -0.0689 0.3809 0.9220
vn -0.9220 0.3809 0.0689
vn -0.0390 -0.5098 0.8594
vn -0.8594 -0.5098 0.0390
vn 0.0872 0.7268 -0.6813
vn -0.6813 0.7268 0.0872
vn 0.0439 -0.6795 -0.7324
vn -0.7324 -0.6795 0.0439
vn 0.7656 0.6001 -0.2319
vn -0.2319 0.6001 0.7656
vn 0.6811 -0.6625 -0.3119
vn -0.3119 -0.6625 0.6811
vn 0.7938 0.5673 -0.2191
vn -0.2191 0.5673 0.7938
vn 0.7018 -0.6311 -0.3305
vn -0.3305 -0.6311 0.7018
vn 0.7804 0.5900 -0.2070
vn -0.2070 0.5900 0.7804
vn 0.6421 -0.6758 -0.3620
vn -0.3620 -0.6758 0.6421
vn 0.9220 0.3809 0.0689
vn 0.0689 0.3809 0.9220
vn 0.8594 -0.5098 0.0390
vn 0.0390 -0.5098 0.8594
vn -0.6813 0.7268 -0.0872
vn 0.0872 0.7268 0.6813
vn -0.7324 -0.6795 -0.0439
vn 0.0439 -0.6795 0.7324
vn -0.2319 0.6001 -0.7656
vn 0.7656 0.6001 0.2319
vn -0.3119 -0.6625 -0.6811
vn 0.6811 -0.6625 0.3119
vn -0.2191 0.5673 -0.7938
vn 0.7938 0.5673 0.2191
vn -0.3305 -0.6311 -0.7018
vn 0.7018 -0.6311 0.3305
vn -0.2070 0.5900 -0.7804
vn 0.7804 0.5900 0.2070
vn -0.3620 -0.6758 -0.6421
vn 0.6421 -0.6758 0.3620
vn 0.0689 0.3809 -0.9220
vn 0.9220 0.3809 -0.0689
vn 0.0390 -0.5098 -0.8594
vn 0.8594 -0.5098 -0.0390
vn -0.0872 0.7268 0.6813
vn 0.6813 0.7268 -0.0872
vn -0.0439 -0.6795 0.7324
vn 0.7324 -0.6795 -0.0439
vn -0.7656 0.6001 0.2319
vn 0.2319 0.6001 -0.7656
vn -0.6811 -0.6625 0.3119
vn 0.3119 -0.6625 -0.6811
vn -0.7938 0.5673 0.2191
vn 0.2191 0.5673 -0.7938
vn -0.7018 -0.6311 0.3305
vn 0.3305 -0.6311 -0.7018
vn -0.7804 0.5900 0.2070
vn 0.2070 0.5900 -0.7804
vn -0.6421 -0.6758 0.3620
vn 0.3620 -0.6758 -0.6421
vn -0.9220 0.3809 -0.0689
vn -0.0689 0.3809 -0.9220
vn -0.8594 -0.5098 -0.0390
vn -0.0390 -0.5098 -0.8594
vn 0.6045 0.7771 0.1752
vn -0.1752 0.7771 -0.6045
vn 0.7825 -0.6216 0.0360
vn -0.0360 -0.6216 -0.7825
vn 0.1284 0.4832 0.8661
vn -0.8661 0.4832 -0.1284
vn 0.3665 -0.7033 0.6092
vn -0.6092 -0.7033 -0.3665
vn -0.0723 0.2963 0.9524
vn -0.9524 0.2963 0.0723
vn -0.0446 -0.4851 0.8733
vn -0.8733 -0.4851 0.0446
vn 0.6955 -0.1803 -0.6955
vn 0.6955 0.1803 -0.6955
vn 0.1752 0.7771 -0.6045
vn -0.6045 0.7771 0.1752
vn 0.0360 -0.6216 -0.7825
vn -0.7825 -0.6216 0.0360
vn 0.8661 0.4832 -0.1284
vn -0.1284 0.4832 0.8661
vn 0.6092 -0.7033 -0.3665
vn -0.3665 -0.7033 0.6092
vn 0.9524 0.2963 0.0723
vn 0.0723 0.2963 0.9524
vn 0.8733 -0.4851 0.0446
vn 0.0446 -0.4851 0.8733
vn -0.6955 -0.1803 -0.6955
vn -0.6955 0.1803 -0.6955
vn -0.6045 0.7771 -0.1752
vn 0.1752 0.7771 0.6045
vn -0.7825 -0.6216 -0.0360
vn 0.0360 -0.6216 0.7825
vn -0.1284 0.4832 -0.8661
vn 0.8661 0.4832 0.1284
vn -0.3665 -0.7033 -0.6092
vn 0.6092 -0.7033 0.3665
vn 0.0723 0.2963 -0.9524
vn 0.9524 0.2963 -0.0723
vn 0.0446 -0.4851 -0.8733
vn 0.8733 -0.4851 -0.0446
vn -0.6955 -0.1803 0.6955
vn -0.6955 0.1803 0.6955
vn -0.1752 0.7771 0.6045
vn 0.6045 0.7771 -0.1752
vn -0.0360 -0.6216 0.7825
vn 0.7825 -0.6216 -0.0360
vn -0.8661 0.4832 0.1284
vn 0.1284 0.4832 -0.8661
vn -0.6092 -0.7033 0.3665
vn 0.3665 -0.7033 -0.6092
vn -0.9524 0.2963 -0.0723
vn -0.0723 0.2963 -0.9524
vn -0.8733 -0.4851 -0.0446
vn -0.0446 -0.4851 -0.8733
vn 0.6955 -0.1803 0.6955
vn 0.6955 0.1803 0.6955
vn -0.0000 -0.0206 -0.9998
vn -0.0000 -0.0449 -0.9990
vn 0.8658 -0.0206 -0.4999
vn 0.8652 -0.0449 -0.4995
vn 0.8658 -0.0206 0.4999
vn 0.8652 -0.0449 0.4995
vn -0.0000 -0.0206 0.9998
vn -0.0000 -0.0449 0.9990
vn -0.8658 -0.0206 0.4999
vn -0.8652 -0.0449 0.4995
vn -0.8658 -0.0206 -0.4999
vn -0.8652 -0.0449 -0.4995
vt 0.000000 0.030000
vt 0.020833 0.030000
vt 0.020833 0.043550
vt 0.000000 0.043550
vt 0.041667 0.030000
vt 0.041667 0.043550
vt 0.062500 0.030000
vt 0.062500 0.043550
vt 0.083333 0.030000
vt 0.083333 0.043550
vt 0.104167 0.030000
vt 0.104167 0.043550
vt 0.125000 0.030000
vt 0.125000 0.043550
vt 0.145833 0.030000
vt 0.145833 0.043550
vt 0.166667 0.030000
vt 0.166667 0.043550
vt 0.187500 0.030000
vt 0.187500 0.043550
vt 0.208333 0.030000
vt 0.208333 0.043550
vt 0.229167 0.030000
vt 0.229167 0.043550
vt 0.250000 0.030000
vt 0.250000 0.043550
vt 0.270833 0.030000
vt 0.270833 0.043550
vt 0.291667 0.030000
vt 0.291667 0.043550
vt 0.312500 0.030000
vt 0.312500 0.043550
vt 0.333333 0.030000
vt 0.333333 0.043550
vt 0.354167 0.030000
vt 0.354167 0.043550
vt 0.375000 0.030000
vt 0.375000 0.043550
vt 0.395833 0.030000
vt 0.395833 0.043550
vt 0.416667 0.030000
vt 0.416667 0.043550
vt 0.437500 0.030000
vt 0.437500 0.043550
vt 0.458333 0.030000
vt 0.458333 0.043550
vt 0.479167 0.030000
vt 0.479167 0.043550
vt 0.500000 0.030000
vt 0.500000 0.043550
vt 0.020833 0.063874
vt 0.000000 0.063874
vt 0.041667 0.063874
vt 0.062500 0.063874
vt 0.083333 0.063874
vt 0.104167 0.063874
vt 0.125000 0.063874
vt 0.145833 0.063874
vt 0.166667 0.063874
vt 0.187500 0.063874
vt 0.208333 0.063874
vt 0.229167 0.063874
vt 0.250000 0.063874
vt 0.270833 0.063874
vt 0.291667 0.063874
vt 0.312500 0.063874
vt 0.333333 0.063874
vt 0.354167 0.063874
vt 0.375000 0.063874
vt 0.395833 0.063874
vt 0.416667 0.063874
vt 0.437500 0.063874
vt 0.458333 0.063874
vt 0.479167 0.063874
vt 0.500000 0.063874
vt 0.020833 0.094360
vt 0.000000 0.094360
vt 0.041667 0.094360
vt 0.062500 0.094360
vt 0.083333 0.094360
vt 0.104167 0.094360
vt 0.125000 0.094360
vt 0.145833 0.094360
vt 0.166667 0.094360
vt 0.187500 0.094360
vt 0.208333 0.094360
vt 0.229167 0.094360
vt 0.250000 0.094360
vt 0.270833 0.094360
vt 0.291667 0.094360
vt 0.312500 0.094360
vt 0.333333 0.094360
vt 0.354167 0.094360
vt 0.375000 0.094360
vt 0.395833 0.094360
vt 0.416667 0.094360
vt 0.437500 0.094360
vt 0.458333 0.094360
vt 0.479167 0.094360
vt 0.500000 0.094360
vt 0.020833 0.123153
vt 0.000000 0.123153
vt 0.041667 0.123153
vt 0.062500 0.123153
vt 0.083333 0.123153
vt 0.104167 0.123153
vt 0.125000 0.123153
vt 0.145833 0.123153
vt 0.166667 0.123153
vt 0.187500 0.123153
vt 0.208333 0.123153
vt 0.229167 0.123153
vt 0.250000 0.123153
vt 0.270833 0.123153
vt 0.291667 0.123153
vt 0.312500 0.123153
vt 0.333333 0.123153
vt 0.354167 0.123153
vt 0.375000 0.123153
vt 0.395833 0.123153
vt 0.416667 0.123153
vt 0.437500 0.123153
vt 0.458333 0.123153
vt 0.479167 0.123153
vt 0.500000 0.123153
vt 0.020833 0.199369
vt 0.000000 0.199369
vt 0.041667 0.199369
vt 0.062500 0.199369
vt 0.083333 0.199369
vt 0.104167 0.199369
vt 0.125000 0.199369
vt 0.145833 0.199369
vt 0.166667 0.199369
vt 0.187500 0.199369
vt 0.208333 0.199369
vt 0.229167 0.199369
vt 0.250000 0.199369
vt 0.270833 0.199369
vt 0.291667 0.199369
vt 0.312500 0.199369
vt 0.333333 0.199369
vt 0.354167 0.199369
vt 0.375000 0.199369
vt 0.395833 0.199369
vt 0.416667 0.199369
vt 0.437500 0.199369
vt 0.458333 0.199369
vt 0.479167 0.199369
vt 0.500000 0.199369
vt 0.020833 0.284054
vt 0.000000 0.284054
vt 0.041667 0.284054
vt 0.062500 0.284054
vt 0.083333 0.284054
vt 0.104167 0.284054
vt 0.125000 0.284054
vt 0.145833 0.284054
vt 0.166667 0.284054
vt 0.187500 0.284054
vt 0.208333 0.284054
vt 0.229167 0.284054
vt 0.250000 0.284054
vt 0.270833 0.284054
vt 0.291667 0.284054
vt 0.312500 0.284054
vt 0.333333 0.284054
vt 0.354167 0.284054
vt 0.375000 0.284054
vt 0.395833 0.284054
vt 0.416667 0.284054
vt 0.437500 0.284054
vt 0.458333 0.284054
vt 0.479167 0.284054
vt 0.500000 0.284054
vt 0.020833 0.343333
vt 0.000000 0.343333
vt 0.041667 0.343333
vt 0.062500 0.343333
vt 0.083333 0.343333
vt 0.104167 0.343333
vt 0.125000 0.343333
vt 0.145833 0.343333
vt 0.166667 0.343333
vt 0.187500 0.343333
vt 0.208333 0.343333
vt 0.229167 0.343333
vt 0.250000 0.343333
vt 0.270833 0.343333
vt 0.291667 0.343333
vt 0.312500 0.343333
vt 0.333333 0.343333
vt 0.354167 0.343333
vt 0.375000 0.343333
vt 0.395833 0.343333
vt 0.416667 0.343333
vt 0.437500 0.343333
vt 0.458333 0.343333
vt 0.479167 0.343333
vt 0.500000 0.343333
vt 0.020833 0.394144
vt 0.000000 0.394144
vt 0.041667 0.394144
vt 0.062500 0.394144
vt 0.083333 0.394144
vt 0.104167 0.394144
vt 0.125000 0.394144
vt 0.145833 0.394144
vt 0.166667 0.394144
vt 0.187500 0.394144
vt 0.208333 0.394144
vt 0.229167 0.394144
vt 0.250000 0.394144
vt 0.270833 0.394144
vt 0.291667 0.394144
vt 0.312500 0.394144
vt 0.333333 0.394144
vt 0.354167 0.394144
vt 0.375000 0.394144
vt 0.395833 0.394144
vt 0.416667 0.394144
vt 0.437500 0.394144
vt 0.458333 0.394144
vt 0.479167 0.394144
vt 0.500000 0.394144
vt 0.020833 0.444955
vt 0.000000 0.444955
vt 0.041667 0.444955
vt 0.062500 0.444955
vt 0.083333 0.444955
vt 0.104167 0.444955
vt 0.125000 0.444955
vt 0.145833 0.444955
vt 0.166667 0.444955
vt 0.187500 0.444955
vt 0.208333 0.444955
vt 0.229167 0.444955
vt 0.250000 0.444955
vt 0.270833 0.444955
vt 0.291667 0.444955
vt 0.312500 0.444955
vt 0.333333 0.444955
vt 0.354167 0.444955
vt 0.375000 0.444955
vt 0.395833 0.444955
vt 0.416667 0.444955
vt 0.437500 0.444955
vt 0.458333 0.444955
vt 0.479167 0.444955
vt 0.500000 0.444955
vt 0.020833 0.529640
vt 0.000000 0.529640
vt 0.041667 0.529640
vt 0.062500 0.529640
vt 0.083333 0.529640
vt 0.104167 0.529640
vt 0.125000 0.529640
vt 0.145833 0.529640
vt 0.166667 0.529640
vt 0.187500 0.529640
vt 0.208333 0.529640
vt 0.229167 0.529640
vt 0.250000 0.529640
vt 0.270833 0.529640
vt 0.291667 0.529640
vt 0.312500 0.529640
vt 0.333333 0.529640
vt 0.354167 0.529640
vt 0.375000 0.529640
vt 0.395833 0.529640
vt 0.416667 0.529640
vt 0.437500 0.529640
vt 0.458333 0.529640
vt 0.479167 0.529640
vt 0.500000 0.529640
vt 0.020833 0.605856
vt 0.000000 0.605856
vt 0.041667 0.605856
vt 0.062500 0.605856
vt 0.083333 0.605856
vt 0.104167 0.605856
vt 0.125000 0.605856
vt 0.145833 0.605856
vt 0.166667 0.605856
vt 0.187500 0.605856
vt 0.208333 0.605856
vt 0.229167 0.605856
vt 0.250000 0.605856
vt 0.270833 0.605856
vt 0.291667 0.605856
vt 0.312500 0.605856
vt 0.333333 0.605856
vt 0.354167 0.605856
vt 0.375000 0.605856
vt 0.395833 0.605856
vt 0.416667 0.605856
vt 0.437500 0.605856
vt 0.458333 0.605856
vt 0.479167 0.605856
vt 0.500000 0.605856
vt 0.020833 0.682072
vt 0.000000 0.682072
vt 0.041667 0.682072
vt 0.062500 0.682072
vt 0.083333 0.682072
vt 0.104167 0.682072
vt 0.125000 0.682072
vt 0.145833 0.682072
vt 0.166667 0.682072
vt 0.187500 0.682072
vt 0.208333 0.682072
vt 0.229167 0.682072
vt 0.250000 0.682072
vt 0.270833 0.682072
vt 0.291667 0.682072
vt 0.312500 0.682072
vt 0.333333 0.682072
vt 0.354167 0.682072
vt 0.375000 0.682072
vt 0.395833 0.682072
vt 0.416667 0.682072
vt 0.437500 0.682072
vt 0.458333 0.682072
vt 0.479167 0.682072
vt 0.500000 0.682072
vt 0.020833 0.749820
vt 0.000000 0.749820
vt 0.041667 0.749820
vt 0.062500 0.749820
vt 0.083333 0.749820
vt 0.104167 0.749820
vt 0.125000 0.749820
vt 0.145833 0.749820
vt 0.166667 0.749820
vt 0.187500 0.749820
vt 0.208333 0.749820
vt 0.229167 0.749820
vt 0.250000 0.749820
vt 0.270833 0.749820
vt 0.291667 0.749820
vt 0.312500 0.749820
vt 0.333333 0.749820
vt 0.354167 0.749820
vt 0.375000 0.749820
vt 0.395833 0.749820
vt 0.416667 0.749820
vt 0.437500 0.749820
vt 0.458333 0.749820
vt 0.479167 0.749820
vt 0.500000 0.749820
vt 0.020833 0.800631
vt 0.000000 0.800631
vt 0.041667 0.800631
vt 0.062500 0.800631
vt 0.083333 0.800631
vt 0.104167 0.800631
vt 0.125000 0.800631
vt 0.145833 0.800631
vt 0.166667 0.800631
vt 0.187500 0.800631
vt 0.208333 0.800631
vt 0.229167 0.800631
vt 0.250000 0.800631
vt 0.270833 0.800631
vt 0.291667 0.800631
vt 0.312500 0.800631
vt 0.333333 0.800631
vt 0.354167 0.800631
vt 0.375000 0.800631
vt 0.395833 0.800631
vt 0.416667 0.800631
vt 0.437500 0.800631
vt 0.458333 0.800631
vt 0.479167 0.800631
vt 0.500000 0.800631
vt 0.020833 0.842973
vt 0.000000 0.842973
vt 0.041667 0.842973
vt 0.062500 0.842973
vt 0.083333 0.842973
vt 0.104167 0.842973
vt 0.125000 0.842973
vt 0.145833 0.842973
vt 0.166667 0.842973
vt 0.187500 0.842973
vt 0.208333 0.842973
vt 0.229167 0.842973
vt 0.250000 0.842973
vt 0.270833 0.842973
vt 0.291667 0.842973
vt 0.312500 0.842973
vt 0.333333 0.842973
vt 0.354167 0.842973
vt 0.375000 0.842973
vt 0.395833 0.842973
vt 0.416667 0.842973
vt 0.437500 0.842973
vt 0.458333 0.842973
vt 0.479167 0.842973
vt 0.500000 0.842973
vt 0.020833 0.890396
vt 0.000000 0.890396
vt 0.041667 0.890396
vt 0.062500 0.890396
vt 0.083333 0.890396
vt 0.104167 0.890396
vt 0.125000 0.890396
vt 0.145833 0.890396
vt 0.166667 0.890396
vt 0.187500 0.890396
vt 0.208333 0.890396
vt 0.229167 0.890396
vt 0.250000 0.890396
vt 0.270833 0.890396
vt 0.291667 0.890396
vt 0.312500 0.890396
vt 0.333333 0.890396
vt 0.354167 0.890396
vt 0.375000 0.890396
vt 0.395833 0.890396
vt 0.416667 0.890396
vt 0.437500 0.890396
vt 0.458333 0.890396
vt 0.479167 0.890396
vt 0.500000 0.890396
vt 0.020833 0.924270
vt 0.000000 0.924270
vt 0.041667 0.924270
vt 0.062500 0.924270
vt 0.083333 0.924270
vt 0.104167 0.924270
vt 0.125000 0.924270
vt 0.145833 0.924270
vt 0.166667 0.924270
vt 0.187500 0.924270
vt 0.208333 0.924270
vt 0.229167 0.924270
vt 0.250000 0.924270
vt 0.270833 0.924270
vt 0.291667 0.924270
vt 0.312500 0.924270
vt 0.333333 0.924270
vt 0.354167 0.924270
vt 0.375000 0.924270
vt 0.395833 0.924270
vt 0.416667 0.924270
vt 0.437500 0.924270
vt 0.458333 0.924270
vt 0.479167 0.924270
vt 0.500000 0.924270
vt 0.020833 0.944595
vt 0.000000 0.944595
vt 0.041667 0.944595
vt 0.062500 0.944595
vt 0.083333 0.944595
vt 0.104167 0.944595
vt 0.125000 0.944595
vt 0.145833 0.944595
vt 0.166667 0.944595
vt 0.187500 0.944595
vt 0.208333 0.944595
vt 0.229167 0.944595
vt 0.250000 0.944595
vt 0.270833 0.944595
vt 0.291667 0.944595
vt 0.312500 0.944595
vt 0.333333 0.944595
vt 0.354167 0.944595
vt 0.375000 0.944595
vt 0.395833 0.944595
vt 0.416667 0.944595
vt 0.437500 0.944595
vt 0.458333 0.944595
vt 0.479167 0.944595
vt 0.500000 0.944595
vt 0.010417 0.953063
vt 0.031250 0.953063
vt 0.052083 0.953063
vt 0.072917 0.953063
vt 0.093750 0.953063
vt 0.114583 0.953063
vt 0.135417 0.953063
vt 0.156250 0.953063
vt 0.177083 0.953063
vt 0.197917 0.953063
vt 0.218750 0.953063
vt 0.239583 0.953063
vt 0.260417 0.953063
vt 0.281250 0.953063
vt 0.302083 0.953063
vt 0.322917 0.953063
vt 0.343750 0.953063
vt 0.364583 0.953063
vt 0.385417 0.953063
vt 0.406250 0.953063
vt 0.427083 0.953063
vt 0.447917 0.953063
vt 0.468750 0.953063
vt 0.489583 0.953063
vt 0.103000 0.820000
vt 0.108500 0.820000
vt 0.108500 0.800000
vt 0.103000 0.800000
vt 0.105750 0.780000
vt 0.114000 0.820000
vt 0.114000 0.800000
vt 0.111250 0.780000
vt 0.119500 0.820000
vt 0.119500 0.800000
vt 0.116750 0.780000
vt 0.125000 0.820000
vt 0.125000 0.800000
vt 0.122250 0.780000
vt 0.130500 0.820000
vt 0.130500 0.800000
vt 0.127750 0.780000
vt 0.136000 0.820000
vt 0.136000 0.800000
vt 0.133250 0.780000
vt 0.141500 0.820000
vt 0.141500 0.800000
vt 0.138750 0.780000
vt 0.147000 0.820000
vt 0.147000 0.800000
vt 0.144250 0.780000
vt 0.353000 0.820000
vt 0.358500 0.820000
vt 0.358500 0.800000
vt 0.353000 0.800000
vt 0.355750 0.780000
vt 0.364000 0.820000
vt 0.364000 0.800000
vt 0.361250 0.780000
vt 0.369500 0.820000
vt 0.369500 0.800000
vt 0.366750 0.780000
vt 0.375000 0.820000
vt 0.375000 0.800000
vt 0.372250 0.780000
vt 0.380500 0.820000
vt 0.380500 0.800000
vt 0.377750 0.780000
vt 0.386000 0.820000
vt 0.386000 0.800000
vt 0.383250 0.780000
vt 0.391500 0.820000
vt 0.391500 0.800000
vt 0.388750 0.780000
vt 0.397000 0.820000
vt 0.397000 0.800000
vt 0.394250 0.780000
vt 0.550000 0.030000
vt 0.550000 0.050000
vt 0.566667 0.050000
vt 0.566667 0.030000
vt 0.550000 0.070000
vt 0.566667 0.070000
vt 0.550000 0.090000
vt 0.566667 0.090000
vt 0.583333 0.050000
vt 0.583333 0.030000
vt 0.583333 0.070000
vt 0.583333 0.090000
vt 0.600000 0.050000
vt 0.600000 0.030000
vt 0.600000 0.070000
vt 0.600000 0.090000
vt 0.616667 0.050000
vt 0.616667 0.030000
vt 0.616667 0.070000
vt 0.616667 0.090000
vt 0.633333 0.050000
vt 0.633333 0.030000
vt 0.633333 0.070000
vt 0.633333 0.090000
vt 0.650000 0.050000
vt 0.650000 0.030000
vt 0.650000 0.070000
vt 0.650000 0.090000
vt 0.666667 0.050000
vt 0.666667 0.030000
vt 0.666667 0.070000
vt 0.666667 0.090000
vt 0.683333 0.050000
vt 0.683333 0.030000
vt 0.683333 0.070000
vt 0.683333 0.090000
vt 0.700000 0.050000
vt 0.700000 0.030000
vt 0.700000 0.070000
vt 0.700000 0.090000
vt 0.716667 0.050000
vt 0.716667 0.030000
vt 0.716667 0.070000
vt 0.716667 0.090000
vt 0.733333 0.050000
vt 0.733333 0.030000
vt 0.733333 0.070000
vt 0.733333 0.090000
vt 0.750000 0.050000
vt 0.750000 0.030000
vt 0.750000 0.070000
vt 0.750000 0.090000
vt 0.766667 0.050000
vt 0.766667 0.030000
vt 0.766667 0.070000
vt 0.766667 0.090000
vt 0.783333 0.050000
vt 0.783333 0.030000
vt 0.783333 0.070000
vt 0.783333 0.090000
vt 0.800000 0.050000
vt 0.800000 0.030000
vt 0.800000 0.070000
vt 0.800000 0.090000
vt 0.816667 0.050000
vt 0.816667 0.030000
vt 0.816667 0.070000
vt 0.816667 0.090000
vt 0.833333 0.050000
vt 0.833333 0.030000
vt 0.833333 0.070000
vt 0.833333 0.090000
vt 0.850000 0.050000
vt 0.850000 0.030000
vt 0.850000 0.070000
vt 0.850000 0.090000
vt 0.866667 0.050000
vt 0.866667 0.030000
vt 0.866667 0.070000
vt 0.866667 0.090000
vt 0.883333 0.050000
vt 0.883333 0.030000
vt 0.883333 0.070000
vt 0.883333 0.090000
vt 0.900000 0.050000
vt 0.900000 0.030000
vt 0.900000 0.070000
vt 0.900000 0.090000
vt 0.916667 0.050000
vt 0.916667 0.030000
vt 0.916667 0.070000
vt 0.916667 0.090000
vt 0.933333 0.050000
vt 0.933333 0.030000
vt 0.933333 0.070000
vt 0.933333 0.090000
vt 0.950000 0.050000
vt 0.950000 0.030000
vt 0.950000 0.070000
vt 0.950000 0.090000
vt 0.870000 0.268000
vt 0.870000 0.209131
vt 0.877540 0.208138
vt 0.892776 0.265001
vt 0.870000 0.180000
vt 0.884566 0.205228
vt 0.914000 0.256210
vt 0.890599 0.200599
vt 0.932225 0.242225
vt 0.895228 0.194566
vt 0.946210 0.224000
vt 0.898138 0.187540
vt 0.955001 0.202776
vt 0.899131 0.180000
vt 0.958000 0.180000
vt 0.898138 0.172460
vt 0.955001 0.157224
vt 0.895228 0.165434
vt 0.946210 0.136000
vt 0.890599 0.159401
vt 0.932225 0.117775
vt 0.884566 0.154772
vt 0.914000 0.103790
vt 0.877540 0.151862
vt 0.892776 0.094999
vt 0.870000 0.150869
vt 0.870000 0.092000
vt 0.862460 0.151862
vt 0.847224 0.094999
vt 0.855434 0.154772
vt 0.826000 0.103790
vt 0.849401 0.159401
vt 0.807775 0.117775
vt 0.844772 0.165434
vt 0.793790 0.136000
vt 0.841862 0.172460
vt 0.784999 0.157224
vt 0.840869 0.180000
vt 0.782000 0.180000
vt 0.841862 0.187540
vt 0.784999 0.202776
vt 0.844772 0.194566
vt 0.793790 0.224000
vt 0.849401 0.200599
vt 0.807775 0.242225
vt 0.855434 0.205228
vt 0.826000 0.256210
vt 0.862460 0.208138
vt 0.847224 0.265001
vt 0.550000 0.040000
vt 0.720000 0.040000
vt 0.720000 0.060000
vt 0.550000 0.060000
vt 0.720000 0.080000
vt 0.550000 0.080000
vt 0.540000 0.380000
vt 0.700000 0.380000
vt 0.700000 0.360000
vt 0.540000 0.360000
vt 0.540000 0.240000
vt 0.700000 0.240000
vt 0.540000 0.150000
vt 0.700000 0.150000
vt 0.620000 0.100000
vt 0.560000 0.380000
vt 0.560000 0.360000
vt 0.520000 0.360000
vt 0.520000 0.240000
vt 0.520000 0.150000
vt 0.720000 0.380000
vt 0.720000 0.360000
vt 0.720000 0.240000
vt 0.720000 0.150000
vt 0.780000 0.380000
vt 0.960000 0.380000
vt 0.960000 0.260000
vt 0.780000 0.260000
vt 0.760000 0.360000
vt 0.980000 0.360000
vt 0.760000 0.380000
vt 0.980000 0.380000
vt 0.530000 0.400000
vt 0.530000 0.370000
vt 0.550000 0.370000
vt 0.550000 0.400000
vt 0.520000 0.920000
vt 0.560000 0.920000
vt 0.560000 0.480000
vt 0.520000 0.480000
vt 0.560000 0.950000
vt 0.520000 0.950000
vt 0.560000 0.450000
vt 0.520000 0.450000
vt 0.580000 0.920000
vt 0.580000 0.480000
vt 0.580000 0.950000
vt 0.580000 0.450000
vt 0.660000 0.920000
vt 0.660000 0.480000
vt 0.660000 0.950000
vt 0.660000 0.450000
vt 0.730000 0.920000
vt 0.730000 0.480000
vt 0.730000 0.950000
vt 0.730000 0.450000
vt 0.740000 0.480000
vt 0.740000 0.920000
vt 0.770000 0.920000
vt 0.870000 0.920000
vt 0.870000 0.480000
vt 0.770000 0.480000
vt 0.870000 0.950000
vt 0.770000 0.950000
vt 0.870000 0.450000
vt 0.770000 0.450000
vt 0.970000 0.920000
vt 0.970000 0.480000
vt 0.970000 0.950000
vt 0.970000 0.450000
vt 0.980000 0.480000
vt 0.980000 0.920000
vt 0.760000 0.920000
vt 0.760000 0.950000
vt 0.760000 0.480000
vt 0.760000 0.450000
vt 0.760000 0.460000
vt 0.780000 0.460000
vt 0.790000 0.460000
vt 0.770000 0.440000
vt 0.825000 0.030000
vt 0.825000 0.060000
vt 0.800000 0.060000
vt 0.812500 0.080000
vt 0.850000 0.060000
vt 0.837500 0.080000
vt 0.875000 0.030000
vt 0.875000 0.060000
vt 0.862500 0.080000
vt 0.900000 0.060000
vt 0.887500 0.080000
vt 0.925000 0.030000
vt 0.925000 0.060000
vt 0.912500 0.080000
vt 0.950000 0.060000
vt 0.937500 0.080000
s 1
usemtl M_R460_Poseidon
f 1/1/1 2/2/2 26/3/26 25/4/25
f 2/2/2 3/5/3 27/6/27 26/3/26
f 3/5/3 4/7/4 28/8/28 27/6/27
f 4/7/4 5/9/5 29/10/29 28/8/28
f 5/9/5 6/11/6 30/12/30 29/10/29
f 6/11/6 7/13/7 31/14/31 30/12/30
f 7/13/7 8/15/8 32/16/32 31/14/31
f 8/15/8 9/17/9 33/18/33 32/16/32
f 9/17/9 10/19/10 34/20/34 33/18/33
f 10/19/10 11/21/11 35/22/35 34/20/34
f 11/21/11 12/23/12 36/24/36 35/22/35
f 12/23/12 13/25/13 37/26/37 36/24/36
f 13/25/13 14/27/14 38/28/38 37/26/37
f 14/27/14 15/29/15 39/30/39 38/28/38
f 15/29/15 16/31/16 40/32/40 39/30/39
f 16/31/16 17/33/17 41/34/41 40/32/40
f 17/33/17 18/35/18 42/36/42 41/34/41
f 18/35/18 19/37/19 43/38/43 42/36/42
f 19/37/19 20/39/20 44/40/44 43/38/43
f 20/39/20 21/41/21 45/42/45 44/40/44
f 21/41/21 22/43/22 46/44/46 45/42/45
f 22/43/22 23/45/23 47/46/47 46/44/46
f 23/45/23 24/47/24 48/48/48 47/46/47
f 24/47/24 1/49/1 25/50/25 48/48/48
f 25/4/25 26/3/26 50/51/50 49/52/49
f 26/3/26 27/6/27 51/53/51 50/51/50
f 27/6/27 28/8/28 52/54/52 51/53/51
f 28/8/28 29/10/29 53/55/53 52/54/52
f 29/10/29 30/12/30 54/56/54 53/55/53
f 30/12/30 31/14/31 55/57/55 54/56/54
f 31/14/31 32/16/32 56/58/56 55/57/55
f 32/16/32 33/18/33 57/59/57 56/58/56
f 33/18/33 34/20/34 58/60/58 57/59/57
f 34/20/34 35/22/35 59/61/59 58/60/58
f 35/22/35 36/24/36 60/62/60 59/61/59
f 36/24/36 37/26/37 61/63/61 60/62/60
f 37/26/37 38/28/38 62/64/62 61/63/61
f 38/28/38 39/30/39 63/65/63 62/64/62
f 39/30/39 40/32/40 64/66/64 63/65/63
f 40/32/40 41/34/41 65/67/65 64/66/64
f 41/34/41 42/36/42 66/68/66 65/67/65
f 42/36/42 43/38/43 67/69/67 66/68/66
f 43/38/43 44/40/44 68/70/68 67/69/67
f 44/40/44 45/42/45 69/71/69 68/70/68
f 45/42/45 46/44/46 70/72/70 69/71/69
f 46/44/46 47/46/47 71/73/71 70/72/70
f 47/46/47 48/48/48 72/74/72 71/73/71
f 48/48/48 25/50/25 49/75/49 72/74/72
f 49/52/49 50/51/50 74/76/74 73/77/73
f 50/51/50 51/53/51 75/78/75 74/76/74
f 51/53/51 52/54/52 76/79/76 75/78/75
f 52/54/52 53/55/53 77/80/77 76/79/76
f 53/55/53 54/56/54 78/81/78 77/80/77
f 54/56/54 55/57/55 79/82/79 78/81/78
f 55/57/55 56/58/56 80/83/80 79/82/79
f 56/58/56 57/59/57 81/84/81 80/83/80
f 57/59/57 58/60/58 82/85/82 81/84/81
f 58/60/58 59/61/59 83/86/83 82/85/82
f 59/61/59 60/62/60 84/87/84 83/86/83
f 60/62/60 61/63/61 85/88/85 84/87/84
f 61/63/61 62/64/62 86/89/86 85/88/85
f 62/64/62 63/65/63 87/90/87 86/89/86
f 63/65/63 64/66/64 88/91/88 87/90/87
f 64/66/64 65/67/65 89/92/89 88/91/88
f 65/67/65 66/68/66 90/93/90 89/92/89
f 66/68/66 67/69/67 91/94/91 90/93/90
f 67/69/67 68/70/68 92/95/92 91/94/91
f 68/70/68 69/71/69 93/96/93 92/95/92
f 69/71/69 70/72/70 94/97/94 93/96/93
f 70/72/70 71/73/71 95/98/95 94/97/94
f 71/73/71 72/74/72 96/99/96 95/98/95
f 72/74/72 49/75/49 73/100/73 96/99/96
f 73/77/73 74/76/74 98/101/98 97/102/97
f 74/76/74 75/78/75 99/103/99 98/101/98
f 75/78/75 76/79/76 100/104/100 99/103/99
f 76/79/76 77/80/77 101/105/101 100/104/100
f 77/80/77 78/81/78 102/106/102 101/105/101
f 78/81/78 79/82/79 103/107/103 102/106/102
f 79/82/79 80/83/80 104/108/104 103/107/103
f 80/83/80 81/84/81 105/109/105 104/108/104
f 81/84/81 82/85/82 106/110/106 105/109/105
f 82/85/82 83/86/83 107/111/107 106/110/106
f 83/86/83 84/87/84 108/112/108 107/111/107
f 84/87/84 85/88/85 109/113/109 108/112/108
f 85/88/85 86/89/86 110/114/110 109/113/109
f 86/89/86 87/90/87 111/115/111 110/114/110
f 87/90/87 88/91/88 112/116/112 111/115/111
f 88/91/88 89/92/89 113/117/113 112/116/112
f 89/92/89 90/93/90 114/118/114 113/117/113
f 90/93/90 91/94/91 115/119/115 114/118/114
f 91/94/91 92/95/92 116/120/116 115/119/115
f 92/95/92 93/96/93 117/121/117 116/120/116
f 93/96/93 94/97/94 118/122/118 117/121/117
f 94/97/94 95/98/95 119/123/119 118/122/118
f 95/98/95 96/99/96 120/124/120 119/123/119
f 96/99/96 73/100/73 97/125/97 120/124/120
f 97/102/97 98/101/98 122/126/122 121/127/121
f 98/101/98 99/103/99 123/128/123 122/126/122
f 99/103/99 100/104/100 124/129/124 123/128/123
f 100/104/100 101/105/101 125/130/125 124/129/124
f 101/105/101 102/106/102 126/131/126 125/130/125
f 102/106/102 103/107/103 127/132/127 126/131/126
f 103/107/103 104/108/104 128/133/128 127/132/127
f 104/108/104 105/109/105 129/134/129 128/133/128
f 105/109/105 106/110/106 130/135/130 129/134/129
f 106/110/106 107/111/107 131/136/131 130/135/130
f 107/111/107 108/112/108 132/137/132 131/136/131
f 108/112/108 109/113/109 133/138/133 132/137/132
f 109/113/109 110/114/110 134/139/134 133/138/133
f 110/114/110 111/115/111 135/140/135 134/139/134
f 111/115/111 112/116/112 136/141/136 135/140/135
f 112/116/112 113/117/113 137/142/137 136/141/136
f 113/117/113 114/118/114 138/143/138 137/142/137
f 114/118/114 115/119/115 139/144/139 138/143/138
f 115/119/115 116/120/116 140/145/140 139/144/139
f 116/120/116 117/121/117 141/146/141 140/145/140
f 117/121/117 118/122/118 142/147/142 141/146/141
f 118/122/118 119/123/119 143/148/143 142/147/142
f 119/123/119 120/124/120 144/149/144 143/148/143
f 120/124/120 97/125/97 121/150/121 144/149/144
f 121/127/121 122/126/122 146/151/122 145/152/121
f 122/126/122 123/128/123 147/153/123 146/151/122
f 123/128/123 124/129/124 148/154/124 147/153/123
f 124/129/124 125/130/125 149/155/125 148/154/124
f 125/130/125 126/131/126 150/156/126 149/155/125
f 126/131/126 127/132/127 151/157/127 150/156/126
f 127/132/127 128/133/128 152/158/128 151/157/127
f 128/133/128 129/134/129 153/159/129 152/158/128
f 129/134/129 130/135/130 154/160/130 153/159/129
f 130/135/130 131/136/131 155/161/131 154/160/130
f 131/136/131 132/137/132 156/162/132 155/161/131
f 132/137/132 133/138/133 157/163/133 156/162/132
f 133/138/133 134/139/134 158/164/134 157/163/133
f 134/139/134 135/140/135 159/165/135 158/164/134
f 135/140/135 136/141/136 160/166/136 159/165/135
f 136/141/136 137/142/137 161/167/137 160/166/136
f 137/142/137 138/143/138 162/168/138 161/167/137
f 138/143/138 139/144/139 163/169/139 162/168/138
f 139/144/139 140/145/140 164/170/140 163/169/139
f 140/145/140 141/146/141 165/171/141 164/170/140
f 141/146/141 142/147/142 166/172/142 165/171/141
f 142/147/142 143/148/143 167/173/143 166/172/142
f 143/148/143 144/149/144 168/174/144 167/173/143
f 144/149/144 121/150/121 145/175/121 168/174/144
f 145/152/121 146/151/122 170/176/122 169/177/121
f 146/151/122 147/153/123 171/178/123 170/176/122
f 147/153/123 148/154/124 172/179/124 171/178/123
f 148/154/124 149/155/125 173/180/125 172/179/124
f 149/155/125 150/156/126 174/181/126 173/180/125
f 150/156/126 151/157/127 175/182/127 174/181/126
f 151/157/127 152/158/128 176/183/128 175/182/127
f 152/158/128 153/159/129 177/184/129 176/183/128
f 153/159/129 154/160/130 178/185/130 177/184/129
f 154/160/130 155/161/131 179/186/131 178/185/130
f 155/161/131 156/162/132 180/187/132 179/186/131
f 156/162/132 157/163/133 181/188/133 180/187/132
f 157/163/133 158/164/134 182/189/134 181/188/133
f 158/164/134 159/165/135 183/190/135 182/189/134
f 159/165/135 160/166/136 184/191/136 183/190/135
f 160/166/136 161/167/137 185/192/137 184/191/136
f 161/167/137 162/168/138 186/193/138 185/192/137
f 162/168/138 163/169/139 187/194/139 186/193/138
f 163/169/139 164/170/140 188/195/140 187/194/139
f 164/170/140 165/171/141 189/196/141 188/195/140
f 165/171/141 166/172/142 190/197/142 189/196/141
f 166/172/142 167/173/143 191/198/143 190/197/142
f 167/173/143 168/174/144 192/199/144 191/198/143
f 168/174/144 145/175/121 169/200/121 192/199/144
f 169/177/121 170/176/122 194/201/122 193/202/121
f 170/176/122 171/178/123 195/203/123 194/201/122
f 171/178/123 172/179/124 196/204/124 195/203/123
f 172/179/124 173/180/125 197/205/125 196/204/124
f 173/180/125 174/181/126 198/206/126 197/205/125
f 174/181/126 175/182/127 199/207/127 198/206/126
f 175/182/127 176/183/128 200/208/128 199/207/127
f 176/183/128 177/184/129 201/209/129 200/208/128
f 177/184/129 178/185/130 202/210/130 201/209/129
f 178/185/130 179/186/131 203/211/131 202/210/130
f 179/186/131 180/187/132 204/212/132 203/211/131
f 180/187/132 181/188/133 205/213/133 204/212/132
f 181/188/133 182/189/134 206/214/134 205/213/133
f 182/189/134 183/190/135 207/215/135 206/214/134
f 183/190/135 184/191/136 208/216/136 207/215/135
f 184/191/136 185/192/137 209/217/137 208/216/136
f 185/192/137 186/193/138 210/218/138 209/217/137
f 186/193/138 187/194/139 211/219/139 210/218/138
f 187/194/139 188/195/140 212/220/140 211/219/139
f 188/195/140 189/196/141 213/221/141 212/220/140
f 189/196/141 190/197/142 214/222/142 213/221/141
f 190/197/142 191/198/143 215/223/143 214/222/142
f 191/198/143 192/199/144 216/224/144 215/223/143
f 192/199/144 169/200/121 193/225/121 216/224/144
f 193/202/121 194/201/122 218/226/122 217/227/121
f 194/201/122 195/203/123 219/228/123 218/226/122
f 195/203/123 196/204/124 220/229/124 219/228/123
f 196/204/124 197/205/125 221/230/125 220/229/124
f 197/205/125 198/206/126 222/231/126 221/230/125
f 198/206/126 199/207/127 223/232/127 222/231/126
f 199/207/127 200/208/128 224/233/128 223/232/127
f 200/208/128 201/209/129 225/234/129 224/233/128
f 201/209/129 202/210/130 226/235/130 225/234/129
f 202/210/130 203/211/131 227/236/131 226/235/130
f 203/211/131 204/212/132 228/237/132 227/236/131
f 204/212/132 205/213/133 229/238/133 228/237/132
f 205/213/133 206/214/134 230/239/134 229/238/133
f 206/214/134 207/215/135 231/240/135 230/239/134
f 207/215/135 208/216/136 232/241/136 231/240/135
f 208/216/136 209/217/137 233/242/137 232/241/136
f 209/217/137 210/218/138 234/243/138 233/242/137
f 210/218/138 211/219/139 235/244/139 234/243/138
f 211/219/139 212/220/140 236/245/140 235/244/139
f 212/220/140 213/221/141 237/246/141 236/245/140
f 213/221/141 214/222/142 238/247/142 237/246/141
f 214/222/142 215/223/143 239/248/143 238/247/142
f 215/223/143 216/224/144 240/249/144 239/248/143
f 216/224/144 193/225/121 217/250/121 240/249/144
f 217/227/121 218/226/122 242/251/122 241/252/121
f 218/226/122 219/228/123 243/253/123 242/251/122
f 219/228/123 220/229/124 244/254/124 243/253/123
f 220/229/124 221/230/125 245/255/125 244/254/124
f 221/230/125 222/231/126 246/256/126 245/255/125
f 222/231/126 223/232/127 247/257/127 246/256/126
f 223/232/127 224/233/128 248/258/128 247/257/127
f 224/233/128 225/234/129 249/259/129 248/258/128
f 225/234/129 226/235/130 250/260/130 249/259/129
f 226/235/130 227/236/131 251/261/131 250/260/130
f 227/236/131 228/237/132 252/262/132 251/261/131
f 228/237/132 229/238/133 253/263/133 252/262/132
f 229/238/133 230/239/134 254/264/134 253/263/133
f 230/239/134 231/240/135 255/265/135 254/264/134
f 231/240/135 232/241/136 256/266/136 255/265/135
f 232/241/136 233/242/137 257/267/137 256/266/136
f 233/242/137 234/243/138 258/268/138 257/267/137
f 234/243/138 235/244/139 259/269/139 258/268/138
f 235/244/139 236/245/140 260/270/140 259/269/139
f 236/245/140 237/246/141 261/271/141 260/270/140
f 237/246/141 238/247/142 262/272/142 261/271/141
f 238/247/142 239/248/143 263/273/143 262/272/142
f 239/248/143 240/249/144 264/274/144 263/273/143
f 240/249/144 217/250/121 241/275/121 264/274/144
f 241/252/121 242/251/122 266/276/122 265/277/121
f 242/251/122 243/253/123 267/278/123 266/276/122
f 243/253/123 244/254/124 268/279/124 267/278/123
f 244/254/124 245/255/125 269/280/125 268/279/124
f 245/255/125 246/256/126 270/281/126 269/280/125
f 246/256/126 247/257/127 271/282/127 270/281/126
f 247/257/127 248/258/128 272/283/128 271/282/127
f 248/258/128 249/259/129 273/284/129 272/283/128
f 249/259/129 250/260/130 274/285/130 273/284/129
f 250/260/130 251/261/131 275/286/131 274/285/130
f 251/261/131 252/262/132 276/287/132 275/286/131
f 252/262/132 253/263/133 277/288/133 276/287/132
f 253/263/133 254/264/134 278/289/134 277/288/133
f 254/264/134 255/265/135 279/290/135 278/289/134
f 255/265/135 256/266/136 280/291/136 279/290/135
f 256/266/136 257/267/137 281/292/137 280/291/136
f 257/267/137 258/268/138 282/293/138 281/292/137
f 258/268/138 259/269/139 283/294/139 282/293/138
f 259/269/139 260/270/140 284/295/140 283/294/139
f 260/270/140 261/271/141 285/296/141 284/295/140
f 261/271/141 262/272/142 286/297/142 285/296/141
f 262/272/142 263/273/143 287/298/143 286/297/142
f 263/273/143 264/274/144 288/299/144 287/298/143
f 264/274/144 241/275/121 265/300/121 288/299/144
f 265/277/121 266/276/122 290/301/122 289/302/121
f 266/276/122 267/278/123 291/303/123 290/301/122
f 267/278/123 268/279/124 292/304/124 291/303/123
f 268/279/124 269/280/125 293/305/125 292/304/124
f 269/280/125 270/281/126 294/306/126 293/305/125
f 270/281/126 271/282/127 295/307/127 294/306/126
f 271/282/127 272/283/128 296/308/128 295/307/127
f 272/283/128 273/284/129 297/309/129 296/308/128
f 273/284/129 274/285/130 298/310/130 297/309/129
f 274/285/130 275/286/131 299/311/131 298/310/130
f 275/286/131 276/287/132 300/312/132 299/311/131
f 276/287/132 277/288/133 301/313/133 300/312/132
f 277/288/133 278/289/134 302/314/134 301/313/133
f 278/289/134 279/290/135 303/315/135 302/314/134
f 279/290/135 280/291/136 304/316/136 303/315/135
f 280/291/136 281/292/137 305/317/137 304/316/136
f 281/292/137 282/293/138 306/318/138 305/317/137
f 282/293/138 283/294/139 307/319/139 306/318/138
f 283/294/139 284/295/140 308/320/140 307/319/139
f 284/295/140 285/296/141 309/321/141 308/320/140
f 285/296/141 286/297/142 310/322/142 309/321/141
f 286/297/142 287/298/143 311/323/143 310/322/142
f 287/298/143 288/299/144 312/324/144 311/323/143
f 288/299/144 265/300/121 289/325/121 312/324/144
f 289/302/121 290/301/122 314/326/146 313/327/145
f 290/301/122 291/303/123 315/328/147 314/326/146
f 291/303/123 292/304/124 316/329/148 315/328/147
f 292/304/124 293/305/125 317/330/149 316/329/148
f 293/305/125 294/306/126 318/331/150 317/330/149
f 294/306/126 295/307/127 319/332/151 318/331/150
f 295/307/127 296/308/128 320/333/152 319/332/151
f 296/308/128 297/309/129 321/334/153 320/333/152
f 297/309/129 298/310/130 322/335/154 321/334/153
f 298/310/130 299/311/131 323/336/155 322/335/154
f 299/311/131 300/312/132 324/337/156 323/336/155
f 300/312/132 301/313/133 325/338/157 324/337/156
f 301/313/133 302/314/134 326/339/158 325/338/157
f 302/314/134 303/315/135 327/340/159 326/339/158
f 303/315/135 304/316/136 328/341/160 327/340/159
f 304/316/136 305/317/137 329/342/161 328/341/160
f 305/317/137 306/318/138 330/343/162 329/342/161
f 306/318/138 307/319/139 331/344/163 330/343/162
f 307/319/139 308/320/140 332/345/164 331/344/163
f 308/320/140 309/321/141 333/346/165 332/345/164
f 309/321/141 310/322/142 334/347/166 333/346/165
f 310/322/142 311/323/143 335/348/167 334/347/166
f 311/323/143 312/324/144 336/349/168 335/348/167
f 312/324/144 289/325/121 313/350/145 336/349/168
f 313/327/145 314/326/146 338/351/170 337/352/169
f 314/326/146 315/328/147 339/353/171 338/351/170
f 315/328/147 316/329/148 340/354/172 339/353/171
f 316/329/148 317/330/149 341/355/173 340/354/172
f 317/330/149 318/331/150 342/356/174 341/355/173
f 318/331/150 319/332/151 343/357/175 342/356/174
f 319/332/151 320/333/152 344/358/176 343/357/175
f 320/333/152 321/334/153 345/359/177 344/358/176
f 321/334/153 322/335/154 346/360/178 345/359/177
f 322/335/154 323/336/155 347/361/179 346/360/178
f 323/336/155 324/337/156 348/362/180 347/361/179
f 324/337/156 325/338/157 349/363/181 348/362/180
f 325/338/157 326/339/158 350/364/182 349/363/181
f 326/339/158 327/340/159 351/365/183 350/364/182
f 327/340/159 328/341/160 352/366/184 351/365/183
f 328/341/160 329/342/161 353/367/185 352/366/184
f 329/342/161 330/343/162 354/368/186 353/367/185
f 330/343/162 331/344/163 355/369/187 354/368/186
f 331/344/163 332/345/164 356/370/188 355/369/187
f 332/345/164 333/346/165 357/371/189 356/370/188
f 333/346/165 334/347/166 358/372/190 357/371/189
f 334/347/166 335/348/167 359/373/191 358/372/190
f 335/348/167 336/349/168 360/374/192 359/373/191
f 336/349/168 313/350/145 337/375/169 360/374/192
f 337/352/169 338/351/170 362/376/194 361/377/193
f 338/351/170 339/353/171 363/378/195 362/376/194
f 339/353/171 340/354/172 364/379/196 363/378/195
f 340/354/172 341/355/173 365/380/197 364/379/196
f 341/355/173 342/356/174 366/381/198 365/380/197
f 342/356/174 343/357/175 367/382/199 366/381/198
f 343/357/175 344/358/176 368/383/200 367/382/199
f 344/358/176 345/359/177 369/384/201 368/383/200
f 345/359/177 346/360/178 370/385/202 369/384/201
f 346/360/178 347/361/179 371/386/203 370/385/202
f 347/361/179 348/362/180 372/387/204 371/386/203
f 348/362/180 349/363/181 373/388/205 372/387/204
f 349/363/181 350/364/182 374/389/206 373/388/205
f 350/364/182 351/365/183 375/390/207 374/389/206
f 351/365/183 352/366/184 376/391/208 375/390/207
f 352/366/184 353/367/185 377/392/209 376/391/208
f 353/367/185 354/368/186 378/393/210 377/392/209
f 354/368/186 355/369/187 379/394/211 378/393/210
f 355/369/187 356/370/188 380/395/212 379/394/211
f 356/370/188 357/371/189 381/396/213 380/395/212
f 357/371/189 358/372/190 382/397/214 381/396/213
f 358/372/190 359/373/191 383/398/215 382/397/214
f 359/373/191 360/374/192 384/399/216 383/398/215
f 360/374/192 337/375/169 361/400/193 384/399/216
f 361/377/193 362/376/194 386/401/218 385/402/217
f 362/376/194 363/378/195 387/403/219 386/401/218
f 363/378/195 364/379/196 388/404/220 387/403/219
f 364/379/196 365/380/197 389/405/221 388/404/220
f 365/380/197 366/381/198 390/406/222 389/405/221
f 366/381/198 367/382/199 391/407/223 390/406/222
f 367/382/199 368/383/200 392/408/224 391/407/223
f 368/383/200 369/384/201 393/409/225 392/408/224
f 369/384/201 370/385/202 394/410/226 393/409/225
f 370/385/202 371/386/203 395/411/227 394/410/226
f 371/386/203 372/387/204 396/412/228 395/411/227
f 372/387/204 373/388/205 397/413/229 396/412/228
f 373/388/205 374/389/206 398/414/230 397/413/229
f 374/389/206 375/390/207 399/415/231 398/414/230
f 375/390/207 376/391/208 400/416/232 399/415/231
f 376/391/208 377/392/209 401/417/233 400/416/232
f 377/392/209 378/393/210 402/418/234 401/417/233
f 378/393/210 379/394/211 403/419/235 402/418/234
f 379/394/211 380/395/212 404/420/236 403/419/235
f 380/395/212 381/396/213 405/421/237 404/420/236
f 381/396/213 382/397/214 406/422/238 405/421/237
f 382/397/214 383/398/215 407/423/239 406/422/238
f 383/398/215 384/399/216 408/424/240 407/423/239
f 384/399/216 361/400/193 385/425/217 408/424/240
f 385/402/217 386/401/218 410/426/242 409/427/241
f 386/401/218 387/403/219 411/428/243 410/426/242
f 387/403/219 388/404/220 412/429/244 411/428/243
f 388/404/220 389/405/221 413/430/245 412/429/244
f 389/405/221 390/406/222 414/431/246 413/430/245
f 390/406/222 391/407/223 415/432/247 414/431/246
f 391/407/223 392/408/224 416/433/248 415/432/247
f 392/408/224 393/409/225 417/434/249 416/433/248
f 393/409/225 394/410/226 418/435/250 417/434/249
f 394/410/226 395/411/227 419/436/251 418/435/250
f 395/411/227 396/412/228 420/437/252 419/436/251
f 396/412/228 397/413/229 421/438/253 420/437/252
f 397/413/229 398/414/230 422/439/254 421/438/253
f 398/414/230 399/415/231 423/440/255 422/439/254
f 399/415/231 400/416/232 424/441/256 423/440/255
f 400/416/232 401/417/233 425/442/257 424/441/256
f 401/417/233 402/418/234 426/443/258 425/442/257
f 402/418/234 403/419/235 427/444/259 426/443/258
f 403/419/235 404/420/236 428/445/260 427/444/259
f 404/420/236 405/421/237 429/446/261 428/445/260
f 405/421/237 406/422/238 430/447/262 429/446/261
f 406/422/238 407/423/239 431/448/263 430/447/262
f 407/423/239 408/424/240 432/449/264 431/448/263
f 408/424/240 385/425/217 409/450/241 432/449/264
f 409/427/241 410/426/242 434/451/266 433/452/265
f 410/426/242 411/428/243 435/453/267 434/451/266
f 411/428/243 412/429/244 436/454/268 435/453/267
f 412/429/244 413/430/245 437/455/269 436/454/268
f 413/430/245 414/431/246 438/456/270 437/455/269
f 414/431/246 415/432/247 439/457/271 438/456/270
f 415/432/247 416/433/248 440/458/272 439/457/271
f 416/433/248 417/434/249 441/459/273 440/458/272
f 417/434/249 418/435/250 442/460/274 441/459/273
f 418/435/250 419/436/251 443/461/275 442/460/274
f 419/436/251 420/437/252 444/462/276 443/461/275
f 420/437/252 421/438/253 445/463/277 444/462/276
f 421/438/253 422/439/254 446/464/278 445/463/277
f 422/439/254 423/440/255 447/465/279 446/464/278
f 423/440/255 424/441/256 448/466/280 447/465/279
f 424/441/256 425/442/257 449/467/281 448/466/280
f 425/442/257 426/443/258 450/468/282 449/467/281
f 426/443/258 427/444/259 451/469/283 450/468/282
f 427/444/259 428/445/260 452/470/284 451/469/283
f 428/445/260 429/446/261 453/471/285 452/470/284
f 429/446/261 430/447/262 454/472/286 453/471/285
f 430/447/262 431/448/263 455/473/287 454/472/286
f 431/448/263 432/449/264 456/474/288 455/473/287
f 432/449/264 409/450/241 433/475/265 456/474/288
f 433/452/265 434/451/266 457/476/289
f 434/451/266 435/453/267 457/477/289
f 435/453/267 436/454/268 457/478/289
f 436/454/268 437/455/269 457/479/289
f 437/455/269 438/456/270 457/480/289
f 438/456/270 439/457/271 457/481/289
f 439/457/271 440/458/272 457/482/289
f 440/458/272 441/459/273 457/483/289
f 441/459/273 442/460/274 457/484/289
f 442/460/274 443/461/275 457/485/289
f 443/461/275 444/462/276 457/486/289
f 444/462/276 445/463/277 457/487/289
f 445/463/277 446/464/278 457/488/289
f 446/464/278 447/465/279 457/489/289
f 447/465/279 448/466/280 457/490/289
f 448/466/280 449/467/281 457/491/289
f 449/467/281 450/468/282 457/492/289
f 450/468/282 451/469/283 457/493/289
f 451/469/283 452/470/284 457/494/289
f 452/470/284 453/471/285 457/495/289
f 453/471/285 454/472/286 457/496/289
f 454/472/286 455/473/287 457/497/289
f 455/473/287 456/474/288 457/498/289
f 456/474/288 433/475/265 457/499/289
f 463/500/290 465/501/292 466/502/293 464/503/291
f 464/503/291 466/502/293 462/504/127
f 465/501/292 467/505/294 468/506/295 466/502/293
f 466/502/293 468/506/295 462/507/127
f 467/505/294 469/508/296 470/509/297 468/506/295
f 468/506/295 470/509/297 462/510/127
f 469/508/296 471/511/298 472/512/299 470/509/297
f 470/509/297 472/512/299 462/513/127
f 471/511/298 473/514/300 474/515/301 472/512/299
f 472/512/299 474/515/301 462/516/127
f 473/514/300 475/517/302 476/518/303 474/515/301
f 474/515/301 476/518/303 462/519/127
f 475/517/302 477/520/304 478/521/305 476/518/303
f 476/518/303 478/521/305 462/522/127
f 477/520/304 463/523/290 464/524/291 478/521/305
f 478/521/305 464/524/291 462/525/127
f 480/500/290 482/501/292 483/502/293 481/503/291
f 481/503/291 483/502/293 479/504/127
f 482/501/292 484/505/294 485/506/295 483/502/293
f 483/502/293 485/506/295 479/507/127
f 484/505/294 486/508/296 487/509/297 485/506/295
f 485/506/295 487/509/297 479/510/127
f 486/508/296 488/511/298 489/512/299 487/509/297
f 487/509/297 489/512/299 479/513/127
f 488/511/298 490/514/300 491/515/301 489/512/299
f 489/512/299 491/515/301 479/516/127
f 490/514/300 492/517/302 493/518/303 491/515/301
f 491/515/301 493/518/303 479/519/127
f 492/517/302 494/520/304 495/521/305 493/518/303
f 493/518/303 495/521/305 479/522/127
f 494/520/304 480/523/290 481/524/291 495/521/305
f 495/521/305 481/524/291 479/525/127
f 503/526/308 501/527/306 502/528/307 504/529/309
f 504/529/309 502/528/307 500/530/139
f 505/527/310 503/531/308 504/532/309 506/528/311
f 506/528/311 504/532/309 500/533/139
f 507/531/312 505/534/310 506/535/311 508/532/313
f 508/532/313 506/535/311 500/536/139
f 509/534/314 507/537/312 508/538/313 510/535/315
f 510/535/315 508/538/313 500/539/139
f 511/537/316 509/540/314 510/541/315 512/538/317
f 512/538/317 510/541/315 500/542/139
f 513/540/318 511/543/316 512/544/317 514/541/319
f 514/541/319 512/544/317 500/545/139
f 515/543/320 513/546/318 514/547/319 516/544/321
f 516/544/321 514/547/319 500/548/139
f 501/546/306 515/549/320 516/550/321 502/547/307
f 502/547/307 516/550/321 500/551/139
f 520/526/308 518/527/306 519/528/307 521/529/309
f 521/529/309 519/528/307 517/530/139
f 522/527/310 520/531/308 521/532/309 523/528/311
f 523/528/311 521/532/309 517/533/139
f 524/531/312 522/534/310 523/535/311 525/532/313
f 525/532/313 523/535/311 517/536/139
f 526/534/314 524/537/312 525/538/313 527/535/315
f 527/535/315 525/538/313 517/539/139
f 528/537/316 526/540/314 527/541/315 529/538/317
f 529/538/317 527/541/315 517/542/139
f 530/540/318 528/543/316 529/544/317 531/541/319
f 531/541/319 529/544/317 517/545/139
f 532/543/320 530/546/318 531/547/319 533/544/321
f 533/544/321 531/547/319 517/548/139
f 518/546/306 532/549/320 533/550/321 519/547/307
f 519/547/307 533/550/321 517/551/139
f 1/552/1 534/553/322 537/554/325 2/555/2
f 534/553/322 535/556/323 538/557/326 537/554/325
f 535/556/323 536/558/324 539/559/327 538/557/326
f 2/555/2 537/554/325 540/560/328 3/561/3
f 537/554/325 538/557/326 541/562/329 540/560/328
f 538/557/326 539/559/327 542/563/330 541/562/329
f 3/561/3 540/560/328 543/564/331 4/565/4
f 540/560/328 541/562/329 544/566/332 543/564/331
f 541/562/329 542/563/330 545/567/333 544/566/332
f 4/565/4 543/564/331 546/568/334 5/569/5
f 543/564/331 544/566/332 547/570/335 546/568/334
f 544/566/332 545/567/333 548/571/336 547/570/335
f 5/569/5 546/568/334 549/572/337 6/573/6
f 546/568/334 547/570/335 550/574/338 549/572/337
f 547/570/335 548/571/336 551/575/339 550/574/338
f 6/573/6 549/572/337 552/576/340 7/577/7
f 549/572/337 550/574/338 553/578/341 552/576/340
f 550/574/338 551/575/339 554/579/342 553/578/341
f 7/577/7 552/576/340 555/580/343 8/581/8
f 552/576/340 553/578/341 556/582/344 555/580/343
f 553/578/341 554/579/342 557/583/345 556/582/344
f 8/581/8 555/580/343 558/584/346 9/585/9
f 555/580/343 556/582/344 559/586/347 558/584/346
f 556/582/344 557/583/345 560/587/348 559/586/347
f 9/585/9 558/584/346 561/588/349 10/589/10
f 558/584/346 559/586/347 562/590/350 561/588/349
f 559/586/347 560/587/348 563/591/351 562/590/350
f 10/589/10 561/588/349 564/592/352 11/593/11
f 561/588/349 562/590/350 565/594/353 564/592/352
f 562/590/350 563/591/351 566/595/354 565/594/353
f 11/593/11 564/592/352 567/596/355 12/597/12
f 564/592/352 565/594/353 568/598/356 567/596/355
f 565/594/353 566/595/354 569/599/357 568/598/356
f 12/597/12 567/596/355 570/600/358 13/601/13
f 567/596/355 568/598/356 571/602/359 570/600/358
f 568/598/356 569/599/357 572/603/360 571/602/359
f 13/601/13 570/600/358 573/604/361 14/605/14
f 570/600/358 571/602/359 574/606/362 573/604/361
f 571/602/359 572/603/360 575/607/363 574/606/362
f 14/605/14 573/604/361 576/608/364 15/609/15
f 573/604/361 574/606/362 577/610/365 576/608/364
f 574/606/362 575/607/363 578/611/366 577/610/365
f 15/609/15 576/608/364 579/612/367 16/613/16
f 576/608/364 577/610/365 580/614/368 579/612/367
f 577/610/365 578/611/366 581/615/369 580/614/368
f 16/613/16 579/612/367 582/616/370 17/617/17
f 579/612/367 580/614/368 583/618/371 582/616/370
f 580/614/368 581/615/369 584/619/372 583/618/371
f 17/617/17 582/616/370 585/620/373 18/621/18
f 582/616/370 583/618/371 586/622/374 585/620/373
f 583/618/371 584/619/372 587/623/375 586/622/374
f 18/621/18 585/620/373 588/624/376 19/625/19
f 585/620/373 586/622/374 589/626/377 588/624/376
f 586/622/374 587/623/375 590/627/378 589/626/377
f 19/625/19 588/624/376 591/628/379 20/629/20
f 588/624/376 589/626/377 592/630/380 591/628/379
f 589/626/377 590/627/378 593/631/381 592/630/380
f 20/629/20 591/628/379 594/632/382 21/633/21
f 591/628/379 592/630/380 595/634/383 594/632/382
f 592/630/380 593/631/381 596/635/384 595/634/383
f 21/633/21 594/632/382 597/636/385 22/637/22
f 594/632/382 595/634/383 598/638/386 597/636/385
f 595/634/383 596/635/384 599/639/387 598/638/386
f 22/637/22 597/636/385 600/640/388 23/641/23
f 597/636/385 598/638/386 601/642/389 600/640/388
f 598/638/386 599/639/387 602/643/390 601/642/389
f 23/641/23 600/640/388 603/644/391 24/645/24
f 600/640/388 601/642/389 604/646/392 603/644/391
f 601/642/389 602/643/390 605/647/393 604/646/392
f 24/645/24 603/644/391 534/648/322 1/649/1
f 603/644/391 604/646/392 535/650/323 534/648/322
f 604/646/392 605/647/393 536/651/324 535/650/323
f 536/652/324 606/653/394 607/654/395 539/655/327
f 606/653/394 630/656/418 607/654/395
f 539/655/327 607/654/395 608/657/396 542/658/330
f 607/654/395 630/656/418 608/657/396
f 542/658/330 608/657/396 609/659/397 545/660/333
f 608/657/396 630/656/418 609/659/397
f 545/660/333 609/659/397 610/661/398 548/662/336
f 609/659/397 630/656/418 610/661/398
f 548/662/336 610/661/398 611/663/399 551/664/339
f 610/661/398 630/656/418 611/663/399
f 551/664/339 611/663/399 612/665/400 554/666/342
f 611/663/399 630/656/418 612/665/400
f 554/666/342 612/665/400 613/667/401 557/668/345
f 612/665/400 630/656/418 613/667/401
f 557/668/345 613/667/401 614/669/402 560/670/348
f 613/667/401 630/656/418 614/669/402
f 560/670/348 614/669/402 615/671/403 563/672/351
f 614/669/402 630/656/418 615/671/403
f 563/672/351 615/671/403 616/673/404 566/674/354
f 615/671/403 630/656/418 616/673/404
f 566/674/354 616/673/404 617/675/405 569/676/357
f 616/673/404 630/656/418 617/675/405
f 569/676/357 617/675/405 618/677/406 572/678/360
f 617/675/405 630/656/418 618/677/406
f 572/678/360 618/677/406 619/679/407 575/680/363
f 618/677/406 630/656/418 619/679/407
f 575/680/363 619/679/407 620/681/408 578/682/366
f 619/679/407 630/656/418 620/681/408
f 578/682/366 620/681/408 621/683/409 581/684/369
f 620/681/408 630/656/418 621/683/409
f 581/684/369 621/683/409 622/685/410 584/686/372
f 621/683/409 630/656/418 622/685/410
f 584/686/372 622/685/410 623/687/411 587/688/375
f 622/685/410 630/656/418 623/687/411
f 587/688/375 623/687/411 624/689/412 590/690/378
f 623/687/411 630/656/418 624/689/412
f 590/690/378 624/689/412 625/691/413 593/692/381
f 624/689/412 630/656/418 625/691/413
f 593/692/381 625/691/413 626/693/414 596/694/384
f 625/691/413 630/656/418 626/693/414
f 596/694/384 626/693/414 627/695/415 599/696/387
f 626/693/414 630/656/418 627/695/415
f 599/696/387 627/695/415 628/697/416 602/698/390
f 627/695/415 630/656/418 628/697/416
f 602/698/390 628/697/416 629/699/417 605/700/393
f 628/697/416 630/656/418 629/699/417
f 605/700/393 629/699/417 606/653/394 536/652/324
f 629/699/417 630/656/418 606/653/394
f 631/701/419 634/702/419 636/703/421 633/704/421
f 633/704/421 636/703/421 635/705/420 632/706/420
f 637/701/422 640/702/422 642/703/424 639/704/424
f 639/704/424 642/703/424 641/705/423 638/706/423
f 643/701/425 646/702/425 648/703/427 645/704/427
f 645/704/427 648/703/427 647/705/426 644/706/426
f 649/701/428 652/702/428 654/703/430 651/704/430
f 651/704/430 654/703/430 653/705/429 650/706/429
f 655/701/431 658/702/431 660/703/433 657/704/433
f 657/704/433 660/703/433 659/705/432 656/706/432
f 661/701/434 664/702/434 666/703/436 663/704/436
f 663/704/436 666/703/436 665/705/435 662/706/435
f 667/701/437 670/702/437 672/703/439 669/704/439
f 669/704/439 672/703/439 671/705/438 668/706/438
f 673/701/440 676/702/440 678/703/442 675/704/442
f 675/704/442 678/703/442 677/705/441 674/706/441
f 679/707/443 680/708/444 684/709/448 683/710/447
f 679/710/443 689/711/453 690/712/454 680/709/444
f 689/711/453 693/713/457 694/714/458 690/712/454
f 693/713/457 697/715/461 694/714/458
f 679/707/443 683/716/447 685/717/449 681/710/445
f 679/710/443 681/718/445 691/719/455 689/711/453
f 689/711/453 691/719/455 695/720/459 693/713/457
f 693/713/457 695/720/459 697/715/461
f 680/708/444 682/721/446 686/722/450 684/709/448
f 680/709/444 690/712/454 692/723/456 682/722/446
f 690/712/454 694/714/458 696/724/460 692/723/456
f 694/714/458 697/715/461 696/724/460
f 683/725/447 684/726/448 688/727/452 687/728/451
f 683/725/447 687/728/451 685/729/449
f 684/726/448 686/730/450 688/727/452
f 681/731/445 685/725/449 686/726/450 682/732/446
f 698/733/139 699/734/139 701/735/139 700/736/139
f 702/737/462 706/738/466 708/739/468 704/740/464
f 703/737/463 705/740/465 709/739/469 707/738/467
f 703/737/463 707/738/467 706/741/466 702/742/462
f 704/740/464 708/739/468 709/743/469 705/744/465
f 706/738/466 710/745/470 712/746/472 708/739/468
f 707/738/467 709/739/469 713/746/473 711/745/471
f 707/738/467 711/745/471 710/747/470 706/741/466
f 708/739/468 712/746/472 713/748/473 709/743/469
f 710/745/470 714/749/474 716/750/476 712/746/472
f 711/745/471 713/746/473 717/750/477 715/749/475
f 711/745/471 715/749/475 714/751/474 710/747/470
f 712/746/472 716/750/476 717/752/477 713/748/473
f 714/749/474 718/753/478 720/754/480 716/750/476
f 715/749/475 717/750/477 721/754/481 719/753/479
f 715/749/475 719/753/479 718/755/478 714/751/474
f 716/750/476 720/754/480 721/756/481 717/752/477
f 719/753/479 721/754/481 720/757/480 718/758/478
f 703/737/463 702/742/462 704/740/464 705/744/465
f 722/737/482 726/738/486 728/739/488 724/740/484
f 723/737/483 725/740/485 729/739/489 727/738/487
f 723/737/483 727/738/487 726/741/486 722/742/482
f 724/740/484 728/739/488 729/743/489 725/744/485
f 726/738/486 730/745/490 732/746/492 728/739/488
f 727/738/487 729/739/489 733/746/493 731/745/491
f 727/738/487 731/745/491 730/747/490 726/741/486
f 728/739/488 732/746/492 733/748/493 729/743/489
f 730/745/490 734/749/494 736/750/496 732/746/492
f 731/745/491 733/746/493 737/750/497 735/749/495
f 731/745/491 735/749/495 734/751/494 730/747/490
f 732/746/492 736/750/496 737/752/497 733/748/493
f 734/749/494 738/753/498 740/754/500 736/750/496
f 735/749/495 737/750/497 741/754/501 739/753/499
f 735/749/495 739/753/499 738/755/498 734/751/494
f 736/750/496 740/754/500 741/756/501 737/752/497
f 739/753/499 741/754/501 740/757/500 738/758/498
f 723/737/483 722/742/482 724/740/484 725/744/485
f 742/737/502 746/738/506 748/739/508 744/740/504
f 743/737/503 745/740/505 749/739/509 747/738/507
f 743/737/503 747/738/507 746/741/506 742/742/502
f 744/740/504 748/739/508 749/743/509 745/744/505
f 746/738/506 750/745/510 752/746/512 748/739/508
f 747/738/507 749/739/509 753/746/513 751/745/511
f 747/738/507 751/745/511 750/747/510 746/741/506
f 748/739/508 752/746/512 753/748/513 749/743/509
f 750/745/510 754/749/514 756/750/516 752/746/512
f 751/745/511 753/746/513 757/750/517 755/749/515
f 751/745/511 755/749/515 754/751/514 750/747/510
f 752/746/512 756/750/516 757/752/517 753/748/513
f 754/749/514 758/753/518 760/754/520 756/750/516
f 755/749/515 757/750/517 761/754/521 759/753/519
f 755/749/515 759/753/519 758/755/518 754/751/514
f 756/750/516 760/754/520 761/756/521 757/752/517
f 759/753/519 761/754/521 760/757/520 758/758/518
f 743/737/503 742/742/502 744/740/504 745/744/505
f 762/737/522 766/738/526 768/739/528 764/740/524
f 763/737/523 765/740/525 769/739/529 767/738/527
f 763/737/523 767/738/527 766/741/526 762/742/522
f 764/740/524 768/739/528 769/743/529 765/744/525
f 766/738/526 770/745/530 772/746/532 768/739/528
f 767/738/527 769/739/529 773/746/533 771/745/531
f 767/738/527 771/745/531 770/747/530 766/741/526
f 768/739/528 772/746/532 773/748/533 769/743/529
f 770/745/530 774/749/534 776/750/536 772/746/532
f 771/745/531 773/746/533 777/750/537 775/749/535
f 771/745/531 775/749/535 774/751/534 770/747/530
f 772/746/532 776/750/536 777/752/537 773/748/533
f 774/749/534 778/753/538 780/754/540 776/750/536
f 775/749/535 777/750/537 781/754/541 779/753/539
f 775/749/535 779/753/539 778/755/538 774/751/534
f 776/750/536 780/754/540 781/756/541 777/752/537
f 779/753/539 781/754/541 780/757/540 778/758/538
f 763/737/523 762/742/522 764/740/524 765/744/525
f 782/759/542 786/760/546 788/761/548 784/762/544
f 783/759/543 785/762/545 789/761/549 787/760/547
f 783/759/543 787/760/547 786/763/546 782/764/542
f 784/762/544 788/761/548 789/765/549 785/766/545
f 786/760/546 790/767/550 792/768/552 788/761/548
f 787/760/547 789/761/549 793/768/553 791/767/551
f 787/760/547 791/767/551 790/769/550 786/763/546
f 788/761/548 792/768/552 793/770/553 789/765/549
f 791/767/551 793/768/553 792/771/552 790/772/550
f 783/773/543 782/774/542 784/775/544 785/776/545
f 794/762/554 797/777/121 796/778/124
f 794/762/554 796/778/124 798/779/127
f 796/778/124 797/777/121 795/780/555
f 796/778/124 795/780/555 798/779/127
f 799/759/556 803/760/560 805/761/562 801/762/558
f 800/759/557 802/762/559 806/761/563 804/760/561
f 800/759/557 804/760/561 803/763/560 799/764/556
f 801/762/558 805/761/562 806/765/563 802/766/559
f 803/760/560 807/767/564 809/768/566 805/761/562
f 804/760/561 806/761/563 810/768/567 808/767/565
f 804/760/561 808/767/565 807/769/564 803/763/560
f 805/761/562 809/768/566 810/770/567 806/765/563
f 808/767/565 810/768/567 809/771/566 807/772/564
f 800/773/557 799/774/556 801/775/558 802/776/559
f 811/762/568 814/777/139 813/778/142
f 811/762/568 813/778/142 815/779/121
f 813/778/142 814/777/139 812/780/569
f 813/778/142 812/780/569 815/779/121
f 816/759/570 820/760/574 822/761/576 818/762/572
f 817/759/571 819/762/573 823/761/577 821/760/575
f 817/759/571 821/760/575 820/763/574 816/764/570
f 818/762/572 822/761/576 823/765/577 819/766/573
f 820/760/574 824/767/578 826/768/580 822/761/576
f 821/760/575 823/761/577 827/768/581 825/767/579
f 821/760/575 825/767/579 824/769/578 820/763/574
f 822/761/576 826/768/580 827/770/581 823/765/577
f 825/767/579 827/768/581 826/771/580 824/772/578
f 817/773/571 816/774/570 818/775/572 819/776/573
f 828/762/582 831/777/133 830/778/136
f 828/762/582 830/778/136 832/779/139
f 830/778/136 831/777/133 829/780/583
f 830/778/136 829/780/583 832/779/139
f 833/759/584 837/760/588 839/761/590 835/762/586
f 834/759/585 836/762/587 840/761/591 838/760/589
f 834/759/585 838/760/589 837/763/588 833/764/584
f 835/762/586 839/761/590 840/765/591 836/766/587
f 837/760/588 841/767/592 843/768/594 839/761/590
f 838/760/589 840/761/591 844/768/595 842/767/593
f 838/760/589 842/767/593 841/769/592 837/763/588
f 839/761/590 843/768/594 844/770/595 840/765/591
f 842/767/593 844/768/595 843/771/594 841/772/592
f 834/773/585 833/774/584 835/775/586 836/776/587
f 845/762/596 848/777/127 847/778/130
f 845/762/596 847/778/130 849/779/133
f 847/778/130 848/777/127 846/780/597
f 847/778/130 846/780/597 849/779/133
f 850/613/598 852/781/600 853/782/601 851/783/599
f 851/783/599 853/782/601 862/784/289
f 852/781/600 854/625/602 855/785/603 853/782/601
f 853/782/601 855/785/603 862/786/289
f 854/625/602 856/787/604 857/788/605 855/785/603
f 855/785/603 857/788/605 862/789/289
f 856/787/604 858/637/606 859/790/607 857/788/605
f 857/788/605 859/790/607 862/791/289
f 858/637/606 860/792/608 861/793/609 859/790/607
f 859/790/607 861/793/609 862/794/289
f 860/792/608 850/649/598 851/795/599 861/793/609
f 861/793/609 851/795/599 862/796/289
